<svg xmlns="http://www.w3.org/2000/svg" width="440.47812" height="480.21521" viewBox="0 0 440.47815 480.21521" id="SVGRoot" class="undefined"><style>.a{stop-color:#f0c;}.b{stop-color:#f95;}.c{fill:#1a1a1a;stroke-width:0.7px;}.d{stop-color:#00e8ff;}.e{stop-color:#ff55d6;}.f{fill:url(#radialGradient1874);stroke-width:0.05;}.g{fill:url(#radialGradient2207);stroke-width:0.05;}</style><defs id="defs775" class="undefined"><linearGradient id="linearGradient2073" class="undefined"><stop id="stop2069" offset="0" class="a"/><stop id="stop2071" offset="1" class="b"/></linearGradient><linearGradient gradientUnits="userSpaceOnUse" y2="574.96814" x2="1381.8926" y1="574.96814" x1="1037.3828" id="linearGradient2075" xlink:href="#linearGradient2073" class="undefined"/><clipPath id="clipPath3892" clipPathUnits="userSpaceOnUse" class="undefined"><path id="path3894" d="m-2129.4343-641.26409c-20.2258 29.02203-40.4439 58.05022-60.666 87.07502 4.0339 1.42396 8.0686 2.84579 12.1028 4.26886 17.3916 53.80181 34.7892 107.60191 52.1835 161.40268 0.9408 2.99721 1.8592 6.00136 2.8325 8.98824 0.4725 1.48232 0.9453 2.96464 1.4184 4.44678 1.6241-5.16261 3.2441-10.32743 4.9891-15.45055 0.9113-2.75972 1.7627-5.53898 2.6897-8.27946 2.0051-5.96217 3.8914-11.95898 5.8392-17.93889 16.246-50.25957 32.4933-100.51877 48.7433-150.77713-4.7094 1.65498-9.4189 3.30944-14.1283 4.96418-18.4708-26.51502-36.9427-53.02939-55.4129-79.54479-0.1971 0.28178-0.3942 0.56335-0.5913 0.84506z" class="c"/></clipPath><radialGradient gradientUnits="userSpaceOnUse" gradientTransform="matrix(0.99999998,0,0,0.75947923,-1392.0535,-202.13925)" r="42.268497" fy="502.42188" fx="1728.8317" cy="502.42188" cx="1728.8317" id="radialGradient1874" xlink:href="#linearGradient866" class="undefined"/><linearGradient id="linearGradient866" class="undefined"><stop offset="0" id="stop862" class="d"/><stop offset="1" id="stop864" class="e"/></linearGradient><radialGradient gradientUnits="userSpaceOnUse" gradientTransform="matrix(1,0,0,0.80628593,-34.709904,47.714595)" r="8.7499809" fy="163.04643" fx="370.64999" cy="163.04643" cx="370.64999" id="radialGradient2207" xlink:href="#linearGradient866" class="undefined"/></defs><metadata id="metadata778" class="undefined"/><g id="layer1" class="undefined"><g id="g11595" class="undefined"><g id="g1458" transform="translate(-802.4639 -19.502923)matrix(5.2151591 0 0 7.4861877 -962.66923 -1023.4786)matrix(0.99911097 0 0 0.99911085 44.214166 -7.8861972)" class="undefined"><path id="path1769" d="m379.03274 147.33903c-0.0364 0.0104-0.14356 0.0816-0.31272 0.18915-0.42921 0.27272-0.87878 0.57299-2.77999 1.85681-3.49038 2.35672-5.43479 3.48944-8.05718 4.6938-4.01141 1.84224-6.73734 2.92517-12.07455 4.79659-3.9027 1.36836-5.54785 1.84989-8.43545 2.46913-2.7472 0.58912-4.20938 0.84378-6.79959 1.18448-0.3477 0.0458-0.84019 0.11404-1.09469 0.15184-0.255 0.0375-0.4505 0.0686-0.4775 0.0686 0 0-0.027 0.3912-0.027 0.86957-0.008 2.45579-0.045 4.54905-0.088 5.11958-0.067 0.88903-0.10996 1.38692-0.22246 2.73055-0.14781 1.74854-0.2038 3.03745-0.17003 4.36168 0.31315-0.21458 0.63226-0.42032 0.95762-0.6152-0.21711-0.45007-0.26076-0.68332-0.23481-1.45659l0.0273-0.81478 0.29099-0.44039c0.2663-0.40299 0.45876-0.77784 0.69996-1.36528l0.091-0.22019 0.0431 0.26429c0.0675 0.42597 0.27195 1.0109 0.47825 1.37049l0.19287 0.33421-0.12845 0.38065c-0.0709 0.20938-0.24383 0.62837-0.38313 0.93114l-0.004 0.00027c-0.0786 0.17062-0.19166 0.38439-0.3056 0.58388 0.17909-0.0954 0.35984-0.18761 0.54229-0.27655 0.0183-0.0368 0.0399-0.0764 0.0554-0.11088 0.1712-0.3804 0.24825-0.4485 0.24905-0.21811 0.0001 0.0471 0.008 0.1059 0.0225 0.17271 0.0972-0.0448 0.19509-0.0878 0.29324-0.1307-0.0294-0.19132-0.0423-0.39668-0.0423-0.63712 0-0.62649 0.005-0.64269 0.18763-0.85861 0.28019-0.3312 0.69128-0.97301 0.84938-1.32979 0.14981-0.33808 0.2438-0.37838 0.2438-0.10462 0 0.21006 0.26398 0.94271 0.43819 1.21735 0.17152 0.27018 0.16143 0.45456-0.12286 1.11455 0.18968-0.0658 0.40473-0.12421 0.61421-0.14924v-0.52779l0.41458-0.57241c0.2279-0.31488 0.48288-0.71628 0.56288-0.89201 0.0804-0.17542 0.16851-0.31933 0.19551-0.31933 0.021 0 0.0483 0.0743 0.0483 0.16514 0 0.22326 0.21742 0.8365 0.41834 1.18813 0.1999 0.34904 0.18868 0.4326-0.16592 1.23352v0.00027c-0.1422 0.32069-0.40806 0.80604-0.59285 1.07881l-0.33445 0.49596-0.14193-0.26376c-0.004-0.007-0.007-0.0142-0.0109-0.0214-0.0645 0.081-0.13135 0.16055-0.20187 0.23768 0.10011 0.18041 0.19775 0.32563 0.26965 0.37595 0.083 0.059 0.10702 0.054 0.21422-0.0438 0.19611-0.17876 0.76568-1.00721 0.94788-1.38197 0.1715-0.34985 0.25429-0.36809 0.25429-0.0566 0.002 0.34437 0.50559 1.45529 0.73329 1.61495 0.0831 0.0587 0.10713 0.054 0.21422-0.0438 0.21271-0.19427 0.77267-1.02205 0.97897-1.44928 0.19929-0.41312 0.28538-0.44899 0.28538-0.12158 0.002 0.3444 0.5052 1.45502 0.7329 1.61469 0.0831 0.0587 0.1075 0.054 0.21461-0.0438 0.35449-0.32318 0.94423-1.30352 1.28493-2.13597l0.091-0.22019 0.0401 0.22019c0.11949 0.66697 0.52882 1.61311 0.77261 1.78376 0.083 0.059 0.10701 0.0537 0.21422-0.0441 0.36269-0.33082 0.8901-1.21215 1.31791-2.20198 0.0753-0.173 0.10444-0.24254 0.13144-0.17584 0.0201 0.3486 0.52731 1.4368 0.73891 1.58521 0.0831 0.059 0.10749 0.054 0.2146-0.0438 0.1409-0.12832 0.73114-0.95047 0.86772-1.20952 0.0517-0.0976 0.19948-0.42913 0.32808-0.73651l0.23294-0.55884 0.13932 0.42682c0.15051 0.45935 0.46486 1.04601 0.61757 1.15317 0.083 0.059 0.10701 0.054 0.21422-0.0438 0.36269-0.33082 0.89046-1.21214 1.31827-2.20197 0.0753-0.17301 0.13108-0.24255 0.13108-0.17585 0.0201 0.34858 0.52758 1.4368 0.73927 1.58521 0.083 0.0587 0.10704 0.054 0.21422-0.0438 0.36271-0.33082 0.89031-1.21217 1.31791-2.20197 0.1042-0.25289 0.10408-0.2681 0.13108-0.13201 0.0155 0.37786 0.5112 1.4691 0.7389 1.6293 0.083 0.059 0.10702 0.054 0.21423-0.0438 0.1529-0.13941 0.72005-0.93907 0.88346-1.24396 0.0678-0.12714 0.22584-0.47797 0.34904-0.77956 0.12329-0.30151 0.22766-0.55832 0.25466-0.56902 0.003-0.0112 0.03 0.0573 0.03 0.15211 0 0.37336 0.49182 1.47932 0.7329 1.64756 0.083 0.059 0.10704 0.054 0.21422-0.0438 0.363-0.33082 0.89048-1.21214 1.31828-2.20197 0.0752-0.173 0.13146-0.24254 0.13146-0.17584 0.0201 0.34857 0.52731 1.43679 0.7389 1.58521 0.083 0.0587 0.10702 0.054 0.21422-0.0438 0.15319-0.1396 0.80199-1.05416 0.858-1.20874 0.0966-0.26384 0.0834-0.0403-0.0318 0.66242-0.0674 0.40953-0.13666 0.93271-0.16365 1.16281-0.024 0.2301-0.0509 0.46808-0.0779 0.52858-0.0159 0.0606-0.0431 0.93831-0.0431 1.95073l-0.027 1.84089-0.91681 0.41874c-3.06358 1.39997-6.832 2.78104-11.2525 4.12374-2.20898 0.67098-4.51885 1.30421-6.06854 1.66348-1.07067 0.2482-2.36119 0.53004-3.26496 0.71877-0.0746 0.11604-0.15346 0.22926-0.23894 0.33839 2.91094-0.46247 4.7295-0.85437 7.40104-1.59539 5.00771-1.38891 10.01722-3.13356 13.41042-4.67032 0.44731-0.20269 0.95031-0.41569 1.11642-0.47379 0.16749-0.0579 0.336-0.13422 0.37899-0.16932 0.053-0.0475 0.0532-0.50971 0.0802-1.78584 0-0.947 0.018-1.86046 0.0449-2.03004 0.0238-0.16954 0.0727-0.56591 0.10974-0.88079 0.082-0.69853 0.46031-2.80009 0.63442-3.52316 0.34608-1.43788 0.99209-3.51787 1.44858-4.66536 0.61991-1.55924 1.96466-4.11812 3.24926-6.183 1.42218-2.28651 3.5021-5.0983 5.3476-7.22946 0.30412-0.35123 0.61659-0.72766 0.69659-0.8367 0.0793-0.10903 0.2723-0.34695 0.42769-0.52858 0.37388-0.4348 0.51006-0.58659 0.44942-0.56927zm-84.52148 0.12941c-0.0187 0.0159 0.12524 0.17793 0.46139 0.56928 0.1562 0.18165 0.34769 0.41954 0.42769 0.52857 0.079 0.10898 0.39256 0.48547 0.69696 0.8367 2.6877 3.10428 5.36139 6.96275 7.04939 10.1729 0.5806 1.10452 1.28227 2.57401 1.54747 3.23956 0.4562 1.14746 1.10213 3.22744 1.44823 4.66537 0.1741 0.72304 0.55442 2.82459 0.63442 3.52315 0.0378 0.31488 0.0827 0.71122 0.10973 0.88079 0.018 0.16955 0.0449 1.08307 0.0449 2.03004 0.002 1.27613 0.0241 1.73844 0.0801 1.78584 0.0421 0.0354 0.21338 0.11142 0.37938 0.16932 0.1667 0.0578 0.66901 0.27126 1.11641 0.47379 3.3933 1.53676 8.40235 3.28141 13.41005 4.67032 2.7181 0.75393 4.54741 1.14624 7.54861 1.61939 0.1254 0.0198-0.0192 0.0899-0.82205 0.39943-3.3106 1.27659-5.20661 2.15747-8.63431 4.01078-3.6913 1.99598-4.29655 2.34132-5.71725 3.26512l-0.92392 0.60085-0.0427 0.66059c-0.1669 2.61693-0.48531 4.31771-1.27371 6.80394-0.4404 1.38899-0.79135 2.27035-1.44635 3.63325-0.8098 1.68477-1.62634 3.07239-2.64404 4.49213-0.5074 0.70772-2.73095 3.55847-3.52974 4.525l0.0116-0.00027c-0.2349 0.28467-0.43072 0.51762-0.40372 0.51762 0.0134 0 0.1152-0.0941 0.2277-0.20924 0.1125-0.11509 0.40854-0.37762 0.65764-0.58362 0.2494-0.20593 0.57069-0.49071 0.71269-0.63242 0.1425-0.14185 0.53802-0.45876 0.87822-0.70442 0.6534-0.47165 1.11786-0.85613 2.79946-2.31729 1.9202-1.66827 2.33726-1.99034 6.07416-4.69119 3.5843-2.59052 5.1564-3.63684 7.5179-5.00296 2.2859-1.32255 6.1845-3.10831 8.3935-3.84485 0.0801-0.0263 0.14714-0.0877 0.17414-0.13618 0.1267-0.37087 0.38331-1.26311 0.53331-1.84977 0.0988-0.38753 0.33515-1.22954 0.52805-1.87141 0.1918-0.64187 0.42246-1.50402 0.51346-1.91577 0.3024-1.37426 0.54951-2.41167 0.86511-3.63325 0.10799-0.41772 0.21853-0.90137 0.3247-1.40493-0.18844 0.12435-0.37846 0.24586-0.573 0.35821-0.17001 0.79903-0.23004 1.71154-0.75388 2.40051-0.11616 0.49408-0.24602 1.06281-0.3438 1.53095-0.4458 2.10174-1.59191 6.26358-1.75271 6.36537-0.0273 0.0173-0.53988 0.21158-1.13888 0.43178-1.7603 0.64718-4.19834 1.73774-5.67194 2.53723-0.8423 0.45697-3.1945 1.86102-4.5619 2.72272-0.9183 0.5787-5.07166 3.49435-7.10256 4.986-1.0335 0.75915-2.06517 1.59068-3.38557 2.72925h0.0292c-0.5553 0.47883-1.07612 0.92265-1.15611 0.98645-0.0804 0.0636 0.0931-0.21135 0.38574-0.61102 2.1514-2.9389 3.62834-5.83667 4.58923-9.00591 0.6869-2.26649 0.97874-3.92 1.06174-6.00324l0.0401-1.02715 0.89058-0.58598c1.2682-0.83459 1.6692-1.06642 5.5375-3.20095 3.4424-1.89965 5.30987-2.80952 8.92567-4.34837l0.73891-0.31464 0.8007 0.0908c0.40958 0.0471 0.77915 0.0769 0.8756 0.0746 0.009-0.004 0.0185-0.009 0.0277-0.013-0.0408-0.023-0.21996-0.0712-0.46402-0.12236-0.3129-0.0656-0.66153-0.1486-0.77673-0.1842-0.1152-0.0356-0.25185-0.065-0.30785-0.065-0.1452 0-2.59034-0.52278-4.32034-0.92383-1.5498-0.35925-3.85982-0.99252-6.06892-1.66349-4.4205-1.3427-8.1892-2.72374-11.2525-4.12374l-0.91642-0.419-0.0273-1.84063c-0.006-1.01242-0.0157-1.89048-0.0427-1.95098-0.022-0.0605-0.0513-0.2982-0.0783-0.52832-0.0214-0.23009-0.0963-0.75353-0.16329-1.16308-0.121-0.70265-0.12882-0.92629-0.0348-0.66242 0.0557 0.15468 0.70531 1.06943 0.85801 1.209 0.10709 0.0977 0.13121 0.10253 0.21422 0.0438 0.2116-0.14828 0.71228-1.23689 0.73928-1.58547 0.005-0.0667 0.0561 0.003 0.13107 0.1761 0.4279 0.9898 0.95528 1.87115 1.31828 2.20197 0.1072 0.0978 0.12822 0.10254 0.21422 0.0438 0.24-0.16828 0.73269-1.27447 0.73329-1.64783 0-0.0946 0.002-0.16254 0.0292-0.15184 0.0161 0.0112 0.13109 0.26716 0.25429 0.56875 0.1241 0.30162 0.28204 0.65231 0.34904 0.77956 0.1626 0.30489 0.73077 1.10492 0.88347 1.24422 0.1072 0.0977 0.12822 0.10253 0.21422 0.0438 0.2282-0.16017 0.7119-1.25144 0.7389-1.6293 0.005-0.13627 0.0212-0.12088 0.13108 0.13201 0.4275 0.98984 0.95558 1.87118 1.31827 2.20198 0.1072 0.0977 0.13122 0.10253 0.21422 0.0438 0.2116-0.1483 0.71191-1.2369 0.73891-1.58548 0.005-0.0664 0.0564 0.003 0.13145 0.17637 0.4275 0.98981 0.9549 1.87118 1.3179 2.20197 0.1072 0.0981 0.12859 0.10279 0.21459 0.0441 0.1525-0.1071 0.4672-0.69406 0.6172-1.15342l0.13931-0.42657 0.23332 0.55884c0.1299 0.30737 0.27707 0.63846 0.32807 0.73626 0.1369 0.25891 0.72574 1.08146 0.86774 1.20978 0.1071 0.0978 0.13122 0.10253 0.21422 0.0438 0.2113-0.1483 0.71191-1.23664 0.73891-1.58521 0.005-0.0664 0.0561 0.003 0.13107 0.1761 0.4275 0.9898 0.95528 1.87115 1.31828 2.20197 0.1072 0.0977 0.13122 0.10253 0.21421 0.0438 0.24331-0.1706 0.65509-1.11647 0.77299-1.78349l0.0401-0.2202 0.091 0.2202c0.3407 0.83247 0.93017 1.81278 1.28457 2.13597 0.1071 0.0981 0.13122 0.10279 0.21422 0.0441 0.2277-0.15971 0.73329-1.27033 0.73329-1.6147 0.001-0.32739 0.0845-0.29148 0.28537 0.12158 0.2068 0.42726 0.76494 1.25506 0.97934 1.44929 0.1071 0.0978 0.13122 0.10253 0.21422 0.0438 0.0513-0.0359 0.11718-0.12472 0.18763-0.23742-0.0716-0.0922-0.1378-0.18747-0.19737-0.28646l-0.11684 0.18706-0.35504-0.54736c-0.4396-0.67763-0.93664-1.78615-0.93664-2.08953 0-0.0662 0.0668-0.25149 0.1498-0.41196 0.169-0.32619 0.32774-0.81879 0.39174-1.21656l0.0427-0.26403 0.23332 0.48423c0.1283 0.26642 0.41359 0.73221 0.63329 1.03498l0.39961 0.55049v0.6165c0 0.51497-0.0268 0.68658-0.16067 1.04124h-0.002c-0.007 0.0182-0.016 0.0367-0.0232 0.0553 0.0939 0.0561 0.18671 0.11411 0.27976 0.17167 0.11832-0.28446 0.20748-0.56005 0.20748-0.70312 0.003-0.31139 0.0828-0.29318 0.25429 0.0569 0.1835 0.37472 0.75228 1.20329 0.94788 1.38197 0.1071 0.0977 0.13122 0.10253 0.21422 0.0438 0.2325-0.16299 0.73329-1.27193 0.73329-1.62721 0.00077-0.21517 0.0803-0.12857 0.28388 0.30603 0.086 0.18419 0.26527 0.47686 0.45053 0.75425 0.0858-0.0519 0.17095-0.10451 0.25617-0.15732-0.44485-0.69022-0.92691-1.77259-0.92691-2.08405 0-0.0723 0.0594-0.22374 0.13145-0.33734 0.173-0.27461 0.43818-1.00731 0.43818-1.21734 0-0.27376 0.0938-0.23346 0.2438 0.10462 0.1594 0.35771 0.56976 0.99991 0.84976 1.32979 0.1848 0.21772 0.18581 0.22762 0.18501 0.88079 0 0.36831-0.0142 0.5625-0.0592 0.75425 0.0806-0.0572 0.16119-0.11403 0.24043-0.17323 0.0431-0.0201 0.0824-0.043 0.12172-0.0658 0.007-0.0762 0.031-0.0901 0.0719-0.0433 0.10395-0.0679 0.19415-0.14545 0.27377-0.23063-0.0797-0.18864-0.15571-0.38123-0.2247-0.58284l-0.12846-0.37596 0.19287-0.33421c0.2065-0.35956 0.41125-0.94478 0.47825-1.37075l0.0431-0.26403 0.091 0.2202c0.14095 0.34312 0.26672 0.61104 0.39886 0.85705 0.0244-0.0521 0.0502-0.10336 0.0775-0.15341 0.008-0.0598 0.0554-0.10638 0.11872-0.13854-0.14051-0.28925-0.29237-0.63449-0.38649-0.89905-0.0644-0.18246-0.0563-0.22849 0.091-0.47066 0.0905-0.14766 0.21426-0.40119 0.27826-0.56327l0.11535-0.29482 0.0798 0.87557c0.0428 0.45444 0.0882 1.01091 0.1161 1.3144 0.10229 0.0225 0.18243 0.0863 0.17901 0.20194 0.0591 0.56657 0.0873 1.19087-0.0543 1.76131l0.004 0.13724c0.0267 0.78624 0.0214 0.83937-0.1367 1.22543l-0.003-0.00027c-0.29329 0.71246-0.2763 0.71067-0.6846 0.0814-0.0458-0.0705-0.0867-0.14335-0.12995-0.21498-0.0814 0.0658-0.16402 0.1303-0.2483 0.19281 0.31679 0.49378 0.69399 0.9648 0.79471 0.9434 0.0405-0.009 0.16388-0.14359 0.27638-0.29977l0.20074-0.28412-0.0288 0.61676c-0.025 0.50035-0.0538 0.96617-0.0858 1.41328 0.0517 0.0444 0.0532 0.14422-0.0247 0.32926-0.10059 1.29416-0.23594 2.40636-0.42731 3.52002-0.009 0.0553-0.0175 0.0962-0.0266 0.14845 0.34952-0.20694 0.93778-0.39148 0.63217-0.63294-0.64347-0.53936-0.0986-1.36472 0.33107-1.84428 0.0287-0.0311 0.0584-0.0614 0.0873-0.0924 0.28573-2.76606 0.29424-4.41881 0.0412-7.39956-0.1151-1.34364-0.15546-1.84155-0.22246-2.73055-0.043-0.57058-0.061-2.66379-0.088-5.11958 0-0.47837 0.00004-0.86984-0.027-0.86984-0.008 0-0.22262-0.0306-0.47712-0.0684-0.2545-0.0378-0.747-0.10604-1.0947-0.15184-2.59019-0.3407-4.05238-0.59533-6.79958-1.18448-2.8876-0.61923-4.53312-1.10077-8.43582-2.46913-5.3372-1.87139-8.06315-2.95438-12.07455-4.79659-2.6224-1.20439-4.56679-2.33731-8.05719-4.69406-1.9012-1.28379-2.35079-1.58384-2.77999-1.85655-0.19722-0.12546-0.31014-0.2015-0.3247-0.18915zm81.4198 2.63115-0.54118 0.67755c-0.29759 0.37258-0.68051 0.87043-0.85201 1.10672h-0.002c-0.17141 0.23625-0.31081 0.42944-0.33781 0.42944-0.0695 0-0.11234-0.21973-0.11234-0.58885v-0.40413l0.46625-0.30916c0.2566-0.17013 0.67099-0.44494 0.92279-0.6105zm-78.32036 0.13097 0.45615 0.30107c0.2507 0.16558 0.66559 0.44038 0.92279 0.61076l0.46701 0.30969v0.42761h-0.003c-0.005 0.64782-0.0647 0.6669-0.4438 0.14349-0.1741-0.24075-0.5606-0.74251-0.858-1.11507zm76.07929 1.40154c0.0102 0.002 0.0165 0.007 0.0198 0.0143 0.0313 0.13413-0.22216 0.92456-0.49435 1.54007v0.00026c-0.14061 0.31842-0.40582 0.80216-0.5906 1.0749l-0.33407 0.4957-0.14231-0.26376c-0.2055-0.38169-0.37182-0.91395-0.41683-1.34362l-0.0401-0.37439 0.99993-0.60502c0.67367-0.40775 0.92804-0.55086 0.9992-0.53849zm-73.83861 0.13097c0.0652-0.0123 0.3287 0.13085 1.00219 0.53849l0.99957 0.60502-0.0431 0.3963c-0.0214 0.21799-0.10763 0.57785-0.18763 0.79913h0.002c-0.0804 0.22144-0.20115 0.48752-0.26515 0.59119l-0.11797 0.18863-0.35579-0.5471c-0.19549-0.301-0.4587-0.78494-0.5846-1.07542-0.251-0.58103-0.49515-1.35545-0.46514-1.48189 0.002-0.008 0.007-0.0126 0.0161-0.0144zm74.00938 0.77043c0.024 0 0.0514 0.0447 0.0509 0.0991v0c-0.003 0.0546-0.0753 0.19798-0.16329 0.31907-0.0862 0.1208-0.15022 0.1707-0.12322 0.1101 0.14771-0.43627 0.19095-0.52831 0.23595-0.52831zm-74.19214 0.13071c0.0387 0.009 0.1029 0.1134 0.17153 0.29324h-0.00039c0.062 0.16127 0.11801 0.29804 0.091 0.30604-0.0367 0.0262-0.29923-0.41644-0.29923-0.50614 0-0.0687 0.0139-0.0983 0.0371-0.0931zm71.49343 0.42656c0.0597 0.006 0.0238 0.13958-0.094 0.54084-0.17359 0.59362-0.58315 1.50109-0.87784 1.94421l0.002 0.00026c-0.13529 0.20387-0.30375 0.40641-0.37375 0.45031-0.12591 0.0786-0.13131 0.0758-0.25992-0.19828-0.0723-0.15289-0.17407-0.4068-0.22507-0.56432-0.0909-0.34716-0.18797-1.10444-0.11797-1.17064 0.0281-0.0262 0.40634-0.22876 0.84115-0.45031 0.4345-0.22147 0.86799-0.44455 0.96397-0.49545 0.0678-0.0362 0.1148-0.0595 0.14196-0.0566zm-68.77824 0.13097c0.0272-0.003 0.0741 0.0204 0.14194 0.0566 0.0956 0.0511 0.52949 0.27389 0.96399 0.49544 0.4345 0.22157 0.81377 0.42351 0.84077 0.45031 0.0857 0.0813-0.0241 0.90808-0.17677 1.32484l-0.00076-0.00027c-0.0777 0.21798-0.18233 0.46233-0.23033 0.54293l-0.0861 0.14662-0.13408-0.10227c-0.3316-0.25192-0.95934-1.47096-1.22464-2.37338-0.11805-0.40126-0.15379-0.53445-0.094-0.54084zm69.01943 0.38117c0.0233-0.002 0.0853 0.13308 0.15355 0.32952 0.075 0.22441 0.22469 0.5577 0.32919 0.74094 0.1069 0.18313 0.19286 0.40319 0.19286 0.48919 0 0.10013-0.22691 0.52562-0.63141 1.18343-0.3472 0.5649-0.71934 1.18189-0.82655 1.37075h0.015c-0.10709 0.18897-0.21743 0.35925-0.24642 0.38065-0.1051 0.0752-0.31381-0.77006-0.34081-1.27005l-0.027-0.48448 0.3086-0.4404c0.4295-0.61304 0.90478-1.63253 1.06547-2.29015 0.002-0.006 0.004-0.009 0.007-0.009zm-69.25012 0.13097c0.004 0.00027 0.008 0.003 0.0112 0.009 0.1618 0.65762 0.63608 1.67713 1.06548 2.29015l0.3086 0.4404-0.027 0.48448c-0.005 0.32621-0.0532 0.61746-0.14718 0.89175h0.0142c-0.0751 0.22415-0.13891 0.40726-0.16591 0.40726-0.0252 0-0.27713-0.38093-0.27713-0.42083 0-0.01-0.32693-0.55089-0.72693-1.203-0.4672-0.76349-0.72729-1.24111-0.72729-1.34101 0-0.0855 0.0885-0.3049 0.19287-0.48814 0.1045-0.18313 0.25457-0.51644 0.32957-0.74094 0.0681-0.19648 0.11956-0.33139 0.14943-0.32952zm66.6087 0.56693c0.1979 0.0436-0.50593 1.85435-1.04338 2.65594h0.002c-0.1725 0.2557-0.31681 0.46492-0.34381 0.46492-0.1297 0-0.46265-0.82653-0.54865-1.35824-0.054-0.2309-0.054-0.53001-0.027-0.66476l0.0401-0.24498 0.9239-0.41822c0.50811-0.22999 0.94622-0.42509 0.97523-0.43309 0.008-0.002 0.0157-0.003 0.0221-0.002zm-63.95606 0.13254c0.0284 0.008 0.4671 0.20297 0.9756 0.43309l0.92391 0.41822 0.0401 0.24498c0.0753 0.45252-0.2036 1.58187-0.479 1.94055h0.001c-0.034 0.0453-0.0693 0.0824-0.0962 0.0824-0.0838 0-0.6831-0.99094-0.9108-1.50669-0.3639-0.82358-0.59926-1.6536-0.45466-1.6126zm64.13134 0.69607 0.14193 0.38639c0.0777 0.21257 0.21746 0.51534 0.31347 0.67259 0.16099 0.24244 0.16907 0.32518 0.13407 0.5411-0.0638 0.42552-0.2769 1.08727-0.5464 1.69766l0.0202 0.00027c-0.14059 0.31842-0.40532 0.80213-0.59023 1.0749l-0.33442 0.4957-0.14196-0.26377c-0.26409-0.49255-0.37895-0.98648-0.40595-1.49781l-0.027-0.48448 0.385-0.52832c0.3917-0.53691 0.6441-1.01195 0.9067-1.70783zm-64.31147 0.13097 0.14456 0.38639c0.2628 0.6962 0.51498 1.17106 0.90668 1.70783l0.38575 0.52832-0.027 0.5064c-0.008 0.37928-0.0484 0.61318-0.16628 0.93114l0.015 0.00027c-0.0876 0.23354-0.21089 0.50943-0.27489 0.61311l-0.11797 0.18863-0.35579-0.5471c-0.5262-0.80986-0.98698-1.94311-1.10218-2.7149-0.0295-0.21603-0.0107-0.29865 0.1367-0.5411 0.0937-0.15738 0.23546-0.46015 0.31346-0.67259zm61.80299 0.10436c0.03 0.0209-0.15342 0.74483-0.26852 1.06603-0.2133 0.58995-0.55527 1.2847-0.84676 1.71957h0.003c-0.16989 0.25332-0.31416 0.46048-0.34116 0.46048-0.1267 0-0.45929-0.81948-0.54529-1.33788-0.054-0.22096-0.054-0.55297-0.027-0.73781 0.041-0.32963 0.046-0.33795 0.27113-0.42605 0.1264-0.0494 0.56792-0.2407 0.98122-0.42474 0.41341-0.1842 0.74636-0.3276 0.77336-0.3196zm-59.30914 0.13097c0.0118-0.008 0.35969 0.13555 0.77299 0.3196 0.4137 0.18409 0.85531 0.37544 0.98121 0.42474 0.2264 0.0881 0.23152 0.0966 0.27152 0.42605 0.019 0.18488 0.01 0.5168-0.027 0.73781-0.0619 0.3796-0.31049 1.07462-0.44979 1.25518l0.003 0.00027c-0.034 0.0453-0.0689 0.0824-0.0959 0.0824-0.0771 0-0.6675-0.96293-0.8711-1.41824-0.3308-0.74193-0.66036-1.77504-0.58536-1.82784zm56.84339 0.92567c0.0303 0.021-0.15296 0.74376-0.26816 1.06654-0.20569 0.56898-0.54973 1.27276-0.81493 1.67261v0c-0.38632 0.58017-0.45132 0.56867-0.72993-0.1294-0.17359-0.43761-0.25959-1.02806-0.2116-1.47511l0.0431-0.38222 0.51308-0.19254c0.28229-0.10579 0.72289-0.27824 0.98008-0.38352 0.25551-0.10527 0.46174-0.18436 0.48875-0.17636zm2.54029 0.0264c0.0291 0.007 0.0996 0.14617 0.16965 0.33838 0.079 0.21962 0.20999 0.50283 0.28799 0.62928 0.1288 0.18899 0.13388 0.27661 0.10188 0.49388-0.0651 0.43441-0.27639 1.09211-0.54829 1.70705v0c-0.14059 0.31844-0.40532 0.80216-0.59022 1.0749l-0.33443 0.49596-0.14193-0.26402c-0.25501-0.47422-0.38085-0.98811-0.40785-1.47564-0.008-0.44446-0.002-0.47087 0.185-0.68251 0.41931-0.47599 0.82482-1.18497 1.13402-1.98177 0.0559-0.14543 0.10707-0.2939 0.13407-0.3303 0.002-0.005 0.006-0.006 0.01-0.005zm-56.91978 0.10435c0.0121-0.008 0.23126 0.0711 0.48836 0.17637 0.2567 0.1053 0.69806 0.27796 0.98046 0.38378l0.51346 0.19228 0.0401 0.38222c0.0632 0.5821-0.0986 1.35395-0.39923 1.90481l0.00077-0.00027c-0.0348 0.0656-0.10929 0.11923-0.16329 0.11923-0.1974 0-0.85064-1.14605-1.19244-2.09187-0.11819-0.32275-0.29814-1.04515-0.26814-1.06655zm-2.54367 0.0266c0.005-0.001 0.009 0.00066 0.0123 0.005 0.016 0.0363 0.0777 0.18483 0.1337 0.3303 0.3094 0.79676 0.71556 1.50552 1.13476 1.98151 0.2092 0.21383 0.20902 0.23429 0.18202 0.70469-0.008 0.34834-0.0564 0.6039-0.16891 0.90922-0.0865 0.23352-0.20976 0.5097-0.27376 0.61337l-0.11798 0.18837-0.35578-0.5471c-0.5288-0.81402-0.9854-1.94283-1.1033-2.72403-0.0322-0.21729-0.0133-0.30501 0.10186-0.49414 0.079-0.12639 0.208-0.40934 0.288-0.62902 0.0704-0.19221 0.13406-0.33106 0.16703-0.33838zm57.03813 0.7626 0.11534 0.39343c0.0613 0.2164 0.20043 0.55525 0.30223 0.75295l0.18763 0.35978-0.0989 0.39917c-0.1272 0.51596-0.23249 0.80436-0.54079 1.47798v0.00027c-0.1385 0.30277-0.38742 0.74845-0.55352 0.99063l-0.30148 0.44039-0.14194-0.26377c-0.2127-0.3916-0.37369-0.91774-0.42171-1.37597l-0.0431-0.40674 0.39698-0.56223c0.42091-0.59579 0.70821-1.14153 0.95202-1.80228zm-2.59311 0.0517c0.01-0.00079 0.0161-0.00019 0.0195 0.002 0.0656 0.0458-0.21357 0.93792-0.48687 1.55469-0.14109 0.31957-0.39709 0.7901-0.5685 1.04594l0.002 0.00026c-0.1725 0.25567-0.31681 0.46492-0.3438 0.46492-0.1264 0-0.46041-0.81865-0.54641-1.33788-0.054-0.22093-0.054-0.54386-0.027-0.71799l0.0431-0.31647 0.45091-0.16384c0.2483-0.0901 0.67348-0.25207 0.94488-0.3603 0.23608-0.0947 0.44586-0.16568 0.5127-0.17115zm8.20138 0.005c0.019 0.002 0.0926 0.1646 0.17752 0.3976 0.0991 0.26644 0.20619 0.53431 0.24118 0.59511 0.0517 0.0908 0.008 0.21295-0.24904 0.68251h0.002c-0.17171 0.31464-0.56475 1.09465-0.87335 1.73314l-0.56177 1.16073-0.0719-0.18289c-0.12039-0.31691-0.19842-0.93811-0.15541-1.25205 0.0343-0.24485 0.1115-0.39965 0.40672-0.81478 0.2004-0.28182 0.44041-0.67118 0.53442-0.86487 0.2041-0.42327 0.51866-1.3109 0.54566-1.44511 0-0.007 0.002-0.01 0.004-0.009zm-60.22744 0.0613 0.14718 0.38769c0.2687 0.71267 0.53578 1.21992 0.94638 1.79706l0.40747 0.57241-0.0431 0.44039c-0.0241 0.24222-0.11025 0.62141-0.19025 0.84296h0.002c-0.0803 0.22144-0.20115 0.48777-0.26515 0.59145l-0.11797 0.18863-0.35503-0.54736c-0.4755-0.73258-0.82786-1.54235-1.02616-2.35277l-0.0962-0.3963 0.21722-0.43935c0.1186-0.24161 0.25249-0.58474 0.29549-0.76208zm2.58374 0.066c0.0217-0.015 0.26145 0.0611 0.53255 0.16933 0.2711 0.10822 0.69503 0.27029 0.94414 0.36029l0.45128 0.16359 0.0431 0.31647c0.019 0.17402 0.01 0.49724-0.027 0.71825-0.0624 0.37993-0.31086 1.07515-0.45016 1.25517h0.002c-0.034 0.0453-0.0693 0.0824-0.0962 0.0824-0.0838 0-0.68266-0.99163-0.91306-1.51086-0.2721-0.61674-0.55011-1.50889-0.48611-1.55469zm-8.18078 0.003c0.003-0.00025 0.004 0.003 0.004 0.009 0.007 0.13416 0.34169 1.02213 0.54529 1.44537 0.0934 0.19377 0.342 0.59016 0.5509 0.88079l0.38125 0.52857v0.52832c0 0.29066-0.0342 0.64741-0.0802 0.79261h0.001c-0.0425 0.14527-0.0936 0.28627-0.12059 0.31307-0.0223 0.0268-0.26227-0.41909-0.53367-0.99088-0.2711-0.57181-0.65777-1.34677-0.86137-1.72219-0.3062-0.56153-0.35698-0.7021-0.30598-0.7926 0.0348-0.0605 0.14381-0.32804 0.24081-0.59459 0.0841-0.23311 0.16049-0.39616 0.17827-0.39787zm55.30976 0.75086c0.0565 0.0394-0.22517 0.94335-0.46627 1.49781-0.12619 0.29066-0.37261 0.75152-0.5494 1.02402h-0.002c-0.1752 0.27255-0.33851 0.49544-0.36551 0.49544-0.2931 0-0.7027-1.44119-0.58761-2.06996l0.0539-0.2862 0.94189-0.34204c0.5181-0.18804 0.94785-0.33247 0.97485-0.31907zm2.44068 0.0514 0.0828 0.34882c0.0477 0.19192 0.18181 0.54704 0.2996 0.78922l0.21423 0.44039-0.11498 0.4404c-0.13959 0.53533-0.19495 0.68369-0.51645 1.38745h0.0232c-0.13829 0.30274-0.38666 0.74871-0.55278 0.99088l-0.30185 0.4404-0.14231-0.26403c-0.2748-0.50597-0.37897-0.9846-0.40597-1.51972l-0.027-0.50641 0.41646-0.5724c0.4019-0.55239 0.66065-1.02835 0.90706-1.67027zm-47.22411 0.0796c0.0182-0.0127 0.45712 0.13101 0.97522 0.31907l0.94189 0.34204 0.0509 0.28621c0.016 0.16839 0.0111 0.46754-0.027 0.72659-0.0643 0.43466-0.32972 1.17691-0.46102 1.28675h0.0135c-0.0345 0.0324-0.0854 0.0564-0.11235 0.0564-0.0876 0-0.68416-0.99266-0.91456-1.5192-0.2414-0.55446-0.52264-1.45841-0.46664-1.49781zm-2.43356 0.0511 0.11797 0.30473c0.247 0.6423 0.50516 1.11795 0.90706 1.67026l0.41683 0.57241-0.0273 0.52832c-0.005 0.40723-0.0426 0.62589-0.16591 0.95306l0.0183 0.00026c-0.0857 0.23355-0.21202 0.5097-0.27602 0.61337l-0.11759 0.18863-0.35503-0.54736c-0.46431-0.71519-0.79134-1.45418-1.00294-2.26485l-0.11535-0.44039 0.21422-0.4404c0.1173-0.2422 0.25361-0.5974 0.29961-0.78921zm55.23299 0.28751 0.13931 0.42605c0.0782 0.23433 0.2229 0.56863 0.3247 0.74303l0.185 0.31725-0.094 0.45344c-0.12541 0.59837-0.29136 1.08284-0.59996 1.75271h-0.003c-0.1393 0.30275-0.38892 0.74872-0.55502 0.99089l-0.30148 0.44039-0.14193-0.26377c-0.29442-0.54366-0.40471-0.97961-0.4041-1.58599v-0.57241l0.38126-0.52831c0.39538-0.54843 0.67181-1.07747 0.92091-1.76941zm-60.83266 0.13071 0.14719 0.40387c0.2505 0.69255 0.52606 1.22124 0.92166 1.7694l0.38163 0.52832v0.59459c-0.003 0.48963-0.0321 0.66935-0.16329 1.01906l-0.003 0.00027c-0.0871 0.23352-0.21314 0.5097-0.27714 0.61337l-0.11797 0.18836-0.35541-0.5471c-0.5256-0.81013-0.89282-1.69668-1.08832-2.6301l-0.094-0.4537 0.185-0.31699c0.1023-0.17448 0.2467-0.5089 0.3247-0.7433zm50.3243 0.2969c0.15606-0.003 0.0857 0.15514-0.0243 0.53171-0.1872 0.64047-0.59584 1.5238-0.94714 2.04804h0.003c-0.1701 0.25567-0.32241 0.46492-0.34941 0.46492-0.0659 0-0.23236-0.31627-0.37975-0.7266-0.14709-0.45927-0.24115-1.07664-0.17415-1.4485l0.0453-0.25933 0.964-0.33864c0.48272-0.16969 0.74111-0.26934 0.86248-0.2716zm-39.87811 0.11662c0.0776-0.007 0.31048 0.0682 0.92953 0.28569l0.96399 0.3389 0.0449 0.25933c0.0917 0.50299-0.0399 1.22508-0.33781 1.85524l0.003 0.00027c-0.0724 0.15109-0.15825 0.28689-0.19025 0.30029-0.0946 0.0407-0.66329-0.8574-0.94189-1.48737-0.2435-0.55076-0.50596-1.33995-0.50596-1.52051 0-0.0182 0.009-0.0296 0.0344-0.0318zm42.43563 0.0892c0.0115 0.007 0.0224 0.0376 0.0397 0.0864 0.16771 0.49131 0.24793 0.6861 0.38463 0.93792 0.153 0.28351 0.1548 0.28778 0.0558 0.68668-0.12749 0.51818-0.23255 0.80587-0.54115 1.48007l-0.002 0.00027c-0.1385 0.30277-0.38741 0.74871-0.55352 0.99089l-0.30186 0.44039-0.14193-0.26403c-0.25531-0.47336-0.38121-0.98775-0.40821-1.47563-0.008-0.45646-0.005-0.46567 0.21721-0.7266 0.4522-0.52978 0.80291-1.13175 1.15462-1.98177 0.0567-0.13527 0.0778-0.18677 0.097-0.17454zm-44.93024 0.13097c0.0191-0.0122 0.0405 0.039 0.0974 0.17428 0.3518 0.85003 0.70241 1.45199 1.15461 1.98177 0.2413 0.2635 0.24122 0.26546 0.21422 0.74852-0.008 0.34834-0.056 0.60391-0.16853 0.90923h-0.002c-0.0868 0.23352-0.21051 0.50968-0.27451 0.61336l-0.11797 0.18837-0.35504-0.5471c-0.4752-0.7325-0.82703-1.53715-1.02803-2.35773-0.0967-0.39887-0.0969-0.40317 0.0558-0.68668 0.13561-0.25187 0.21583-0.44661 0.38463-0.93792 0.0171-0.0486 0.0278-0.0787 0.0393-0.0861zm50.41642 0.42239 0.13933 0.42683c0.0764 0.2347 0.22394 0.57169 0.32844 0.74904 0.1045 0.17729 0.18726 0.36217 0.18726 0.41117 0 0.1848-0.2607 0.96893-0.5071 1.52703l0.0251 0.00027c-0.14089 0.31842-0.40579 0.80187-0.5906 1.07463l-0.33443 0.49597-0.14195-0.26377c-0.2738-0.5084-0.40484-0.98469-0.40484-1.51972l-0.027-0.50667 0.33368-0.45761c0.3946-0.54109 0.45213-0.64566 0.75913-1.37832zm-10.29526 0.0149c0.0549 0.0383-0.23723 0.93426-0.49172 1.51138v-0.00027c-0.1417 0.32027-0.40729 0.80555-0.5921 1.07829l-0.33443 0.49597-0.1337-0.24812c-0.32879-0.61208-0.49182-1.33716-0.41984-1.9022 0.0375-0.29847 0.0615-0.34951 0.1794-0.38091 0.0753-0.0199 0.50304-0.15738 0.95014-0.30525 0.44719-0.14788 0.81451-0.25959 0.84151-0.24889zm-45.58225 0.11636 0.23332 0.55885c0.3073 0.73298 0.3649 0.83748 0.7595 1.37832l0.33407 0.45761-0.027 0.52858c-0.005 0.40878-0.043 0.62461-0.16628 0.95305h0.0225c-0.0857 0.23355-0.21201 0.50969-0.27601 0.61337l-0.1176 0.18863-0.35578-0.5471c-0.389-0.59882-0.74497-1.36704-0.93777-2.02926-0.1584-0.54441-0.15874-0.54435 0.0637-0.92618 0.1031-0.17723 0.25045-0.51436 0.32845-0.74904zm48.02406 0.00053 0.11536 0.39473c0.0624 0.21707 0.19648 0.55022 0.29548 0.74043l0.18201 0.34569-0.091 0.39108c-0.112 0.4882-0.216 0.77367-0.5348 1.47016h0.0192c-0.13848 0.30277-0.38741 0.74872-0.55352 0.99089l-0.30185 0.44039-0.14193-0.26377c-0.25741-0.47416-0.38047-0.98782-0.40747-1.47589l-0.027-0.46231 0.41907-0.57267c0.41329-0.56437 0.68115-1.06063 0.91155-1.68174zm-37.75052 0.0141c0.0161-0.011 0.39462 0.10103 0.84152 0.2489 0.4473 0.14791 0.87475 0.28645 0.94975 0.30525 0.1175 0.0314 0.14139 0.0823 0.17939 0.38091 0.0538 0.43744-0.0428 1.03957-0.24904 1.53329l0.001 0.00027c-0.2861 0.68767-0.26972 0.68599-0.67712 0.059-0.1943-0.29883-0.45646-0.78109-0.58236-1.07176-0.2358-0.54119-0.51427-1.42021-0.46327-1.45581zm-2.42907 0.11741 0.11797 0.31673c0.2293 0.62135 0.49826 1.11774 0.91156 1.682l0.41945 0.57241-0.027 0.48449c-0.008 0.34882-0.0563 0.60325-0.1689 0.90896h0.0139c-0.0868 0.23352-0.21051 0.50969-0.27451 0.61337l-0.1176 0.18863-0.35541-0.54736c-0.4795-0.73898-0.84449-1.57882-1.02129-2.34756l-0.091-0.39108 0.18201-0.34569c0.1002-0.19012 0.23386-0.52343 0.29586-0.74043zm35.18214 0.56849c0.0149-0.001 0.0243-0.00079 0.0277 0.002 0.0386 0.0679-0.24747 0.93336-0.49397 1.48894v0c-0.14089 0.31842-0.4058 0.80212-0.5906 1.07489l-0.33443 0.49597-0.14232-0.26403c-0.33431-0.61821-0.48947-1.39597-0.40148-1.99586l0.0479-0.32195 0.94825-0.25542c0.4564-0.1226 0.83363-0.2154 0.9389-0.22411zm10.4563 0.0814c0.007-0.001 0.0113 0.008 0.0113 0.0284 0.008 0.21059 0.24296 0.84065 0.44115 1.18682l0.1824 0.3183-0.11273 0.43648c-0.1371 0.53024-0.19258 0.67895-0.51458 1.38353h-0.005c-0.13831 0.30277-0.38704 0.74871-0.55315 0.99089l-0.30186 0.44014-0.14193-0.26377c-0.27401-0.50754-0.37822-0.98433-0.40522-1.51973v-0.5064l0.35167-0.48448c0.3528-0.48574 0.61043-0.97806 0.89844-1.71749 0.074-0.18603 0.12774-0.28826 0.14981-0.29273zm-40.65971 0.0493c0.0973 0.009 0.48773 0.10128 0.94413 0.22411l0.94789 0.25516 0.0509 0.3663c0.0624 0.4657-0.0322 1.09178-0.24119 1.59539h0.00039c-0.2877 0.6916-0.27054 0.68993-0.67824 0.0626-0.1942-0.29883-0.45608-0.781-0.58198-1.0715-0.2266-0.52135-0.50314-1.3673-0.46514-1.4305 0.001-0.002 0.009-0.003 0.0232-0.002zm32.81225 0.0809 0.0802 0.3016c0.0423 0.1658 0.16561 0.47957 0.27002 0.69764 0.1501 0.32007 0.18179 0.43888 0.14979 0.61676-0.0788 0.43554-0.28862 1.07544-0.54042 1.64391l-0.003 0.00027c-0.1409 0.31842-0.40544 0.80212-0.59025 1.07489l-0.33442 0.49597-0.14232-0.26403c-0.2802-0.51985-0.40597-0.98338-0.40597-1.54164v-0.52858l0.25468-0.2862c0.4592-0.51722 0.83765-1.15996 1.17596-1.99691zm-43.24271 0.00079c0.0221 0.004 0.0733 0.10654 0.14606 0.29299 0.2882 0.73992 0.54572 1.23184 0.89882 1.71748l0.35204 0.48449-0.027 0.52831c-0.005 0.40888-0.0427 0.62451-0.16329 0.95306l0.0198 0.00027c-0.0884 0.23353-0.21164 0.50969-0.27564 0.61337l-0.11797 0.18863-0.35541-0.54737c-0.4642-0.71559-0.79179-1.45766-1.00069-2.26093l-0.11235-0.43674 0.18201-0.31804c0.1977-0.34617 0.41455-0.97626 0.44155-1.18682 0.00076-0.0207 0.005-0.0301 0.012-0.0287zm7.84859 0.13045 0.0858 0.21341c0.3386 0.83759 0.71781 1.48071 1.17671 1.99691l0.25467 0.28646-0.0273 0.5505c-0.005 0.43431-0.04 0.63997-0.16591 0.97497h0.0378c-0.0862 0.23352-0.21238 0.5097-0.27638 0.61337l-0.11797 0.18863-0.35579-0.54737c-0.3892-0.59881-0.7469-1.37057-0.9344-2.02221-0.2386-0.76317-0.23856-0.81656-0.027-1.25544 0.1037-0.21799 0.22664-0.53207 0.26964-0.6979zm33.00249 0.2515 0.0397 0.2202c0.0718 0.40291 0.23612 0.91872 0.38611 1.20482 0.145 0.27783 0.14494 0.2903 0.0539 0.7279-0.12382 0.5902-0.29098 1.07689-0.59847 1.74436l-0.002 0.00027c-0.13959 0.30277-0.38929 0.74871-0.5554 0.99089l-0.30147 0.44039-0.14231-0.26403c-0.30851-0.56964-0.40448-0.9743-0.40448-1.65174 0.003-0.62649 0.008-0.64295 0.19026-0.85887 0.4688-0.55422 0.87397-1.28611 1.18307-2.13779zm15.79793 0.0676 0.17152 0.48684 0.17154 0.48709-0.31685 0.88862c-0.3356 0.94159-0.89133 2.74575-0.89133 2.89283h-0.003c0 0.18954-0.12723 0.0708-0.27453-0.25386-0.2412-0.53332-0.28946-0.83306-0.31646-1.33214v-0.46231l0.38537-0.52857c0.39861-0.54688 0.67166-1.07109 0.92617-1.77176zm-18.52061 0.009c0.0113 0.00083 0.0173 0.003 0.0173 0.007-0.002 0.11346-0.27504 0.83485-0.51084 1.34883h-0.003c-0.13959 0.30277-0.38893 0.74872-0.55502 0.99089l-0.30148 0.4404-0.14194-0.26377c-0.32321-0.59692-0.50514-1.4803-0.40334-1.93194l0.0509-0.21368 0.93253-0.21028c0.48754-0.10996 0.83518-0.17307 0.91454-0.16724zm-27.90954 0.0548 0.1498 0.41665c0.3097 0.85248 0.71583 1.58597 1.18382 2.1378 0.18491 0.21772 0.18551 0.22761 0.18501 0.88078 0 0.56491-0.0241 0.72195-0.16066 1.08508l0.00038 0.00026c-0.0882 0.23352-0.21463 0.50944-0.27863 0.61311l-0.1176 0.18863-0.35503-0.5471c-0.524-0.80756-0.89393-1.69725-1.08683-2.62202-0.0906-0.43757-0.0907-0.4503 0.0539-0.72816 0.15-0.28608 0.31374-0.80165 0.38574-1.20456zm-15.80129 0.0665 0.14718 0.40674c0.2534 0.70067 0.52763 1.22485 0.92653 1.77175l0.385 0.52831v0.46388c-0.005 0.49908-0.075 0.79883-0.31609 1.33214l-0.003-0.001c-0.1463 0.32469-0.27489 0.44325-0.27489 0.25385 0-0.14712-0.55601-1.95151-0.89171-2.89309l-0.31646-0.88835 0.17152-0.48709zm18.52359 0.009c0.0792-0.006 0.42721 0.0573 0.91493 0.16724l0.93253 0.21028 0.0479 0.21394c0.0697 0.31008-0.0107 0.94557-0.17677 1.4091l-0.00077 0.00027c-0.0777 0.22144-0.19853 0.48752-0.26253 0.59119l-0.11797 0.18863-0.35503-0.54736c-0.1953-0.301-0.44194-0.74659-0.54903-0.99011-0.1959-0.44582-0.44957-1.14369-0.45017-1.23639-0.00002-0.004 0.006-0.006 0.0169-0.007zm35.672 0.31882c0.008 0.00013 0.0146 0.008 0.0214 0.0248 0.0115 0.19687 0.25518 0.8391 0.44267 1.16491l0.18239 0.31803-0.11273 0.43648c-0.13741 0.53024-0.1925 0.67893-0.51419 1.38354v0.00027c-0.1382 0.30274-0.38668 0.74872-0.55278 0.99089l-0.30185 0.44039-0.14195-0.26403c-0.28689-0.53252-0.40434-0.98122-0.40484-1.56381v-0.5505l0.382-0.52831c0.34851-0.48183 0.54361-0.84256 0.89321-1.65148 0.0545-0.12996 0.0842-0.20157 0.10711-0.20116zm-12.88123 0.0475c0.0319 0.0199-0.16964 0.5382-0.43744 1.1229h-0.003c-0.1385 0.30277-0.38742 0.74871-0.55352 0.99089l-0.30185 0.44039-0.14195-0.26376c-0.2504-0.46262-0.37859-0.97913-0.40559-1.45555-0.005-0.24873 0.0107-0.46699 0.0378-0.48579 0.0509-0.0361 1.77352-0.36788 1.80552-0.34908zm2.58634 0.0532 0.0449 0.34726c0.0552 0.43165 0.17737 0.81923 0.39437 1.26144l0.16889 0.34125-0.13407 0.47327c-0.0742 0.26034-0.25058 0.73571-0.39249 1.05637l0.002 0.00027c-0.1423 0.3207-0.40795 0.80605-0.59285 1.07881l-0.33405 0.49596-0.14231-0.26376c-0.30832-0.57254-0.42923-0.9744-0.40223-1.65201v-0.63867l0.35841-0.49779c0.42269-0.58709 0.47893-0.68916 0.79133-1.43494zm-35.87647 0.0303c0.0201-0.00039 0.0628 0.0711 0.11909 0.20115 0.3499 0.80933 0.54441 1.16968 0.89321 1.65148l0.38237 0.52857v0.57241c-0.003 0.46297-0.0347 0.65376-0.16328 0.99715h-0.005c-0.0868 0.23352-0.21314 0.50969-0.27714 0.61337l-0.1176 0.18863-0.35503-0.54736c-0.4646-0.71557-0.79207-1.4577-1.00106-2.26094l-0.11273-0.43674 0.18238-0.31803c0.1881-0.32581 0.41567-0.96774 0.44267-1.16465 0.001-0.0166 0.005-0.0249 0.012-0.025zm12.8951 0.0472c0.0322-0.02 1.75451 0.31288 1.80551 0.34908 0.1071 0.0759 0.0213 0.97165-0.13408 1.39658h-0.001c-0.0858 0.23353-0.20939 0.50969-0.27339 0.61337l-0.11797 0.18863-0.35503-0.54736c-0.3341-0.51497-0.60545-1.06357-0.84115-1.70809-0.056-0.15419-0.10977-0.28721-0.0828-0.29221zm-2.58748 0.0535 0.23856 0.56771c0.3129 0.74627 0.36929 0.84811 0.79209 1.43493l0.35877 0.49779 0.00077 0.6606c0 0.56697-0.0214 0.72089-0.16066 1.08533h0.00076c-0.0884 0.23352-0.21463 0.5097-0.27863 0.61337l-0.11797 0.18862-0.35579-0.54736c-0.4037-0.62111-0.75118-1.38381-0.94938-2.07752l-0.13669-0.47327 0.1689-0.34151c0.2178-0.44221 0.33836-0.82952 0.39436-1.26118zm20.72534 0.2335c0.0584 0-0.0806 0.3735-0.39324 1.05689h-0.007c-0.13819 0.30277-0.38741 0.74872-0.55352 0.99089l-0.30149 0.44039-0.14193-0.26376c-0.2504-0.46262-0.37897-0.97911-0.40597-1.45555 0-0.24866-0.00004-0.46413 0.027-0.47483 0.0297-0.021 1.68066-0.29403 1.77667-0.29403zm-15.87994 0.13123c0.0973 0 1.74692 0.27289 1.77592 0.29429 0.0937 0.0668-0.005 0.99163-0.15018 1.38537h-0.00038c-0.0857 0.23352-0.20902 0.50968-0.27302 0.61336l-0.11797 0.18863-0.35578-0.54736c-0.3381-0.52008-0.56274-0.97367-0.81194-1.63713-0.04-0.16357-0.0937-0.29716-0.0667-0.29716zm36.57156 0.0869 0.13932 0.43517c0.0764 0.23934 0.22914 0.59118 0.33894 0.78165l0.19848 0.34621-0.10186 0.41953c-0.1292 0.53158-0.23159 0.81296-0.54529 1.49833l0.002 0.00027c-0.1385 0.30276-0.38779 0.7487-0.5539 0.99088l-0.30147 0.4404-0.14195-0.26377c-0.3073-0.56964-0.40445-0.97458-0.40445-1.652 0-0.62649 0.005-0.64295 0.18762-0.85887 0.4187-0.49483 0.86124-1.26162 1.09694-1.9056zm-18.31499 0.0616c0.0111 0.006 0.0207 0.0429 0.0382 0.11662 0.0192 0.0848 0.0671 0.29298 0.10711 0.46283 0.0401 0.16971 0.15534 0.47677 0.26255 0.68251 0.10448 0.20568 0.19545 0.44414 0.22244 0.53014 0.0384 0.18731-0.14463 0.74457-0.49022 1.4952l-0.024 0.00027c-0.1393 0.30277-0.38892 0.74872-0.55503 0.99089l-0.30186 0.44039-0.14231-0.26376c-0.31129-0.57948-0.42921-0.97207-0.40221-1.67392l0.027-0.66059 0.37826-0.52858c0.3212-0.44883 0.48464-0.74727 0.83215-1.5192 0.024-0.0527 0.0368-0.0785 0.0479-0.0728zm-38.94708 0.0686 0.0861 0.23246c0.2371 0.64481 0.67912 1.41294 1.09732 1.90559 0.1848 0.21772 0.18513 0.22739 0.18463 0.88053 0 0.56494-0.0241 0.72221-0.16067 1.08533h-0.002c-0.0881 0.23353-0.21426 0.5097-0.27826 0.61337l-0.1176 0.18863-0.35541-0.54737c-0.4806-0.74075-0.83087-1.54657-1.03177-2.37599l-0.10187-0.41952 0.19812-0.34621c0.1088-0.1905 0.2613-0.54242 0.3393-0.78165zm34.23875 0.01-0.0431 0.15471c-0.0228 0.0852-0.15394 0.41087-0.29324 0.72347h0.002c-0.13822 0.31257-0.40095 0.79143-0.58574 1.0642l-0.33406 0.49596-0.14232-0.26402c-0.3414-0.64074-0.56364-1.75-0.36814-1.86359 0.0525-0.0303 0.30021-0.0847 0.5494-0.12106 0.24961-0.0362 0.62616-0.0938 0.83516-0.12784zm-15.926 0.0524c0.0111-0.006 0.0239 0.0202 0.0479 0.0728 0.3477 0.7722 0.51141 1.07037 0.83291 1.5192l0.37826 0.52858v0.6825c0.003 0.59236-0.0188 0.73879-0.15805 1.10725h-0.001c-0.0884 0.23355-0.21463 0.5097-0.27863 0.61337l-0.1176 0.18863-0.35541-0.54736c-0.5325-0.82066-1.04259-2.05833-0.97859-2.37286 0.0161-0.0859 0.11526-0.3244 0.22246-0.53014 0.1044-0.20572 0.22253-0.51266 0.26253-0.68251 0.0402-0.16971 0.0801-0.37813 0.10711-0.46283 0.0175-0.0737 0.0271-0.1109 0.0382-0.11662zm31.00187 0.0149 0.13407 0.40439c0.075 0.22238 0.22207 0.55405 0.32657 0.73729 0.1042 0.18313 0.19025 0.37307 0.19025 0.42187 0 0.18445-0.26058 0.96886-0.50708 1.52651v0c-0.14091 0.31842-0.40581 0.80216-0.5906 1.0749l-0.33445 0.4957-0.14193-0.26376c-0.28189-0.52119-0.40484-0.98336-0.40484-1.54191v-0.52831l0.38311-0.52858c0.3453-0.47599 0.60844-0.96108 0.85764-1.58182zm-26.29279 0.0639 0.38125 0.0618c0.2095 0.034 0.58568 0.0914 0.83478 0.12784 0.655 0.0951 0.65321 0.0924 0.59921 0.61754-0.0241 0.24303-0.11025 0.62298-0.19025 0.84453l-0.002 0.00026c-0.0803 0.22144-0.20115 0.48779-0.26515 0.59146l-0.11797 0.18837-0.35541-0.54711c-0.3257-0.50088-0.74552-1.35933-0.84452-1.73287zm-15.05378 0.0665 0.088 0.21654c0.24991 0.62118 0.5127 1.10586 0.85801 1.58182l0.38349 0.52832-0.027 0.55049c-0.003 0.43578-0.0374 0.63908-0.16329 0.97523l0.0206 0.00027c-0.086 0.23352-0.21201 0.5097-0.27601 0.61337l-0.11797 0.18837-0.35541-0.5471c-0.3893-0.59882-0.74525-1.36704-0.93815-2.02926-0.158-0.54487-0.15796-0.54234 0.067-0.93636 0.1045-0.1831 0.25157-0.51495 0.32657-0.7373zm23.9993 0.16123c0.0609-0.0106 0.0394 0.034-0.18089 0.56067h0.00039c-0.0964 0.23007-0.1987 0.43612-0.2277 0.46022-0.027 0.023-0.0539-0.17973-0.0539-0.45057v-0.49231l0.17414-0.0269c0.0964-0.0145 0.21192-0.0337 0.25692-0.0444 0.0117-0.003 0.0224-0.005 0.0311-0.007zm4.68586 0.0793 0.11535 0.39526c0.0616 0.21731 0.1981 0.55682 0.3026 0.75452l0.18763 0.35925-0.12884 0.37752c-0.0708 0.20762-0.24269 0.62524-0.38198 0.92801-0.13961 0.30277-0.38931 0.74871-0.5554 0.99089l-0.30185 0.44039-0.14195-0.26376c-0.21639-0.40149-0.37481-0.92395-0.41982-1.38772-0.0376-0.40015-0.0324-0.4281 0.13369-0.63867 0.42921-0.5428 0.79401-1.10235 0.98421-1.5119zm-11.32553 0.066c0.0324-0.001 0.0816 0.008 0.14718 0.0183 0.1232 0.0196 0.22767 0.0449 0.25467 0.0556l0.005-0.00026c0.054 0.011 0.054 0.23574 0.027 0.49935-0.0214 0.52004-0.0322 0.51988-0.25991-0.005-0.21713-0.46344-0.27132-0.56402-0.17415-0.56798zm9.07472 0.0402 0.0322 0.1101c0.0184 0.0605 0.0645 0.25749 0.10448 0.43778 0.0402 0.18021 0.15814 0.50644 0.26254 0.72504l0.19026 0.39734-0.10711 0.33186c-0.0581 0.18255-0.21731 0.58423-0.35392 0.89279h0.0206c-0.1363 0.30859-0.39746 0.78442-0.58236 1.05716l-0.33445 0.4957-0.14193-0.26376c-0.2572-0.475-0.38009-0.98794-0.40709-1.47564l-0.027-0.46257 0.41945-0.57241c0.35761-0.48818 0.50926-0.75959 0.87335-1.56329zm-13.79466 0.025 0.20635 0.44379c0.1902 0.40905 0.55284 0.9662 0.98384 1.5119 0.1683 0.21257 0.17108 0.2355 0.13108 0.66059-0.0241 0.24223-0.11025 0.62141-0.19025 0.84296h0.002c-0.0804 0.22144-0.20115 0.48777-0.26515 0.59145l-0.11797 0.18837-0.35504-0.5471c-0.3627-0.55909-0.64723-1.14693-0.87223-1.81037l-0.12846-0.37256 0.18763-0.35951c0.1047-0.19759 0.24098-0.537 0.30298-0.75426zm34.33649 0.0342c0.007-0.001 0.0113 0.008 0.0113 0.0287 0.008 0.2119 0.24402 0.84152 0.44492 1.19256l0.18726 0.32377-0.097 0.38692c-0.12511 0.50519-0.23247 0.79768-0.53818 1.46572h-0.004c-0.1385 0.3028-0.38743 0.7487-0.55352 0.99088l-0.30187 0.4404-0.14194-0.26377c-0.2816-0.52107-0.40483-0.98287-0.40483-1.5419v-0.52832l0.35091-0.48448c0.352-0.4862 0.60992-0.97996 0.89731-1.71749 0.074-0.18603 0.12738-0.28852 0.14943-0.29299zm-32.06547 0.071 0.0483 0.11009c0.3641 0.80379 0.51546 1.07538 0.87336 1.56356l0.41945 0.57241-0.027 0.48449c-0.008 0.3488-0.056 0.60324-0.16853 0.90896l0.0206 0.00027c-0.0868 0.23352-0.21051 0.50944-0.27451 0.61311l-0.1176 0.18863-0.35578-0.54711c-0.3582-0.55132-0.70482-1.279-0.90032-1.89202l-0.10711-0.33186 0.19025-0.39761c0.1045-0.21857 0.22253-0.54474 0.26253-0.72503 0.0404-0.18034 0.0775-0.37719 0.10449-0.43779zm24.07682 0.053 0.0749 0.30681c0.0914 0.37743 0.24437 0.75194 0.44267 1.0796 0.147 0.24557 0.1488 0.25341 0.0528 0.63867-0.12588 0.50838-0.23234 0.7999-0.53854 1.46885v0.00027c-0.1385 0.30277-0.3878 0.74871-0.55391 0.99089l-0.30146 0.44039-0.14196-0.26403c-0.2891-0.53335-0.40386-0.98104-0.40445-1.56381v-0.5505l0.34904-0.48448c0.36051-0.49983 0.61626-0.98855 0.87336-1.67001zm-44.61602 0.007c0.0234 0.004 0.0748 0.10654 0.1468 0.29299 0.2875 0.7381 0.54503 1.23142 0.89733 1.71748l0.35129 0.48449-0.027 0.55049c-0.005 0.43669-0.0378 0.63815-0.16366 0.97498l0.0229 0.00026c-0.0862 0.23352-0.21239 0.50969-0.27639 0.61337l-0.11797 0.18837-0.35504-0.5471c-0.4717-0.72684-0.82413-1.53454-1.02503-2.34338l-0.097-0.38691 0.18501-0.32377c0.2009-0.35104 0.41792-0.98066 0.44492-1.19256 0.001-0.0207 0.006-0.0301 0.0139-0.0287zm7.96318 0.12367 0.14756 0.39291c0.2574 0.68208 0.51276 1.17035 0.87336 1.67l0.34979 0.48449v0.5724c-0.005 0.46385-0.0347 0.65312-0.16329 0.99715l-0.003 0.00027c-0.0868 0.23352-0.21314 0.50943-0.27714 0.61311l-0.11759 0.18863-0.35541-0.5471c-0.4722-0.72791-0.82488-1.53434-1.02578-2.34651-0.0934-0.38512-0.0935-0.39303 0.0539-0.63868 0.1987-0.32766 0.35167-0.70218 0.44267-1.07959zm21.79532 0.17088 0.0831 0.33526c0.0777 0.31241 0.28048 0.79765 0.47338 1.12759 0.064 0.11514 0.064 0.19183 0 0.40909-0.1353 0.4563-0.56547 1.37661-0.83067 1.77619h0.003c-0.13801 0.20982-0.25838 0.38143-0.28538 0.38143-0.005 0-0.0322-0.63437-0.0322-1.40989 0-1.40212 0.003-1.41202 0.16366-1.7287 0.0903-0.17515 0.22162-0.44698 0.29362-0.6045zm-6.93179 0.13045 0.13107 0.28621c0.0724 0.15744 0.20374 0.43058 0.29474 0.60658l0.18838 0.32012-0.027 1.41928-0.0273 1.41954-0.26928-0.39265c-0.2752-0.40108-0.70514-1.30743-0.84714-1.78714-0.067-0.21723-0.067-0.2939 0-0.40909 0.1923-0.32994 0.39576-0.81545 0.47376-1.12786zm27.29497 0.3783 0.0801 0.33552c0.0448 0.18458 0.16807 0.50617 0.27525 0.71459 0.10712 0.20847 0.19772 0.44812 0.22471 0.53302 0.0415 0.20375-0.16847 0.90526-0.48535 1.62225h0.021c-0.1409 0.31844-0.40542 0.80216-0.59022 1.0749l-0.33443 0.49571-0.14195-0.26377c-0.2561-0.47682-0.37934-0.98763-0.40634-1.47564l-0.027-0.46257 0.35428-0.48422c0.37049-0.50667 0.63363-1.00882 0.88271-1.68696zm-47.64506 0.13019 0.14719 0.40309c0.2494 0.67841 0.51202 1.18014 0.88272 1.6867l0.35466 0.48448-0.027 0.48449c-0.008 0.35069-0.0534 0.60156-0.16591 0.90896h0.0169c-0.0868 0.23352-0.21052 0.5097-0.27452 0.61337l-0.11759 0.18863-0.35579-0.5471c-0.5588-0.86001-1.11576-2.27156-1.04076-2.63923 0.0161-0.0848 0.11788-0.32486 0.22508-0.53328 0.106-0.20845 0.22989-0.52975 0.27489-0.71433zm39.67738 0.0926 0.11273 0.39317c0.0627 0.21619 0.18577 0.52717 0.27675 0.69112 0.3081 0.56377 0.30837 0.56697 0.16368 1.07072-0.0734 0.25406-0.24901 0.72385-0.391 1.04411v0c-0.14149 0.32027-0.40683 0.80553-0.59171 1.07829l-0.33445 0.49596-0.14232-0.26376c-0.28879-0.53433-0.40311-0.98137-0.40371-1.56382V166.867l0.34941-0.48449c0.35121-0.48711 0.62566-1.00702 0.84266-1.59408zm-31.72842 0.13071 0.11797 0.31673c0.217 0.58762 0.49132 1.1069 0.84302 1.59382l0.3498 0.48448v0.57241c-0.005 0.46383-0.0351 0.6531-0.16367 0.99715l-0.002 0.00027c-0.0868 0.23352-0.21314 0.50944-0.27714 0.61311l-0.11797 0.18863-0.35579-0.54737c-0.3978-0.61246-0.7466-1.37461-0.9475-2.06526-0.1455-0.50297-0.14494-0.50618 0.16366-1.06994 0.0895-0.16389 0.21476-0.47493 0.27676-0.69111zm29.28249 0.37099 0.0431 0.26403c0.0651 0.41119 0.26931 1.00595 0.45692 1.3324l0.17114 0.29717-0.10712 0.35847c-0.0582 0.19723-0.21865 0.61807-0.36064 0.93531l0.002 0.00027c-0.1404 0.31721-0.40457 0.79981-0.58947 1.07255l-0.33443 0.49596-0.14195-0.26376c-0.30659-0.5649-0.4026-0.97619-0.4026-1.63009v-0.6165l0.34718-0.48422c0.3129-0.4369 0.57055-0.91722 0.82504-1.54138zm-26.83544 0.13045 0.091 0.2202c0.2553 0.62481 0.51269 1.10427 0.82579 1.54112l0.34755 0.48449v0.63867c0 0.54242-0.0241 0.70247-0.16067 1.06316h-0.003c-0.0878 0.23352-0.21389 0.5097-0.27789 0.61337l-0.11797 0.18863-0.35541-0.54737c-0.3735-0.57438-0.73962-1.35605-0.91642-1.95412l-0.10449-0.35456 0.17152-0.29716c0.1875-0.32643 0.39291-0.92122 0.45691-1.3324zm42.78618 0.19802c0.006-0.003 0.0105-0.003 0.0138 0.002 0.0188 0.0363 0.0807 0.20481 0.1367 0.37439 0.0581 0.16955 0.20007 0.47297 0.31796 0.67442l0.21422 0.3663-0.094 0.38247c-0.12369 0.50069-0.23157 0.79444-0.53666 1.46128l-0.005 0.00027c-0.1385 0.30277-0.38781 0.74871-0.5539 0.99089l-0.30149 0.44039-0.14231-0.26402c-0.2818-0.52097-0.40484-0.98288-0.40484-1.54191v-0.52831l0.33257-0.45762c0.3941-0.54248 0.45024-0.6445 0.76475-1.39214 0.1161-0.27552 0.21664-0.48442 0.25803-0.50797zm-8.00664 0.0856 0.16891 0.47822c0.0916 0.26305 0.22835 0.5738 0.30334 0.69034 0.072 0.11666 0.13371 0.26068 0.13371 0.32038 0 0.20239-0.24998 0.96477-0.5071 1.54633l0.0176 0.00027c-0.14059 0.31845-0.40532 0.80216-0.59022 1.0749l-0.33443 0.49596-0.14195-0.26402c-0.25689-0.47503-0.38008-0.98794-0.40708-1.47564l-0.027-0.46231 0.41906-0.57267c0.39482-0.53948 0.68376-1.06575 0.87936-1.59851zm-50.71304 0.0449c0.0372 0.0236 0.14577 0.23245 0.26066 0.50797 0.3145 0.74801 0.37045 0.84988 0.76475 1.39215l0.33331 0.45761-0.0273 0.55049c-0.003 0.43658-0.0374 0.63824-0.16328 0.97498l0.0217 0.00026c-0.0863 0.23352-0.21239 0.5097-0.27639 0.61337l-0.11797 0.18837-0.35503-0.5471c-0.4707-0.72537-0.82561-1.53471-1.02391-2.33894l-0.094-0.38274 0.21422-0.36604c0.11711-0.20138 0.26196-0.50484 0.31796-0.67442 0.0559-0.16965 0.1067-0.33799 0.1337-0.37439 0.002-0.005 0.006-0.005 0.0116-0.002zm40.36422 0.0822c0.042 0.007 0.0794 0.0935 0.0794 0.22933 0.002 0.22519 0.2253 0.84117 0.44491 1.22074l0.19026 0.33004-0.12884 0.38065c-0.0713 0.20934-0.24383 0.62837-0.38311 0.93114v0c-0.13931 0.30277-0.38929 0.7487-0.5554 0.99088l-0.30186 0.4404-0.14193-0.26403c-0.3039-0.56383-0.40298-0.97563-0.40298-1.62982v-0.6165l0.34718-0.48449c0.3054-0.426 0.65047-1.06908 0.77898-1.44641 0.0213-0.0608 0.0478-0.0858 0.073-0.0819zm-32.35908 0.003 0.0861 0.23324c0.195 0.53297 0.48415 1.05912 0.87935 1.59852l0.41945 0.5724-0.027 0.48449c-0.008 0.3488-0.0564 0.60325-0.16891 0.90897h-0.002c-0.0871 0.23352-0.21051 0.50969-0.27451 0.61336l-0.11798 0.18863-0.35578-0.54736c-0.3893-0.59882-0.74487-1.36678-0.93777-2.029-0.1391-0.5333-0.13914-0.59431 0.027-0.8547 0.0731-0.11656 0.20973-0.42726 0.30373-0.69033zm29.9948 0.0603c0.0239-0.005 0.0449 0.0797 0.0689 0.27577 0.056 0.43312 0.2295 0.96399 0.4438 1.36162 0.16 0.29414 0.16003 0.30512 0.064 0.57006-0.0544 0.14866-0.21123 0.51802-0.35054 0.82079h-0.005c-0.1385 0.30277-0.38741 0.7487-0.55353 0.99088l-0.30185 0.4404-0.14193-0.26377c-0.29021-0.53828-0.40785-0.98079-0.40785-1.58599v-0.57241l0.35579-0.51345c0.2993-0.43198 0.52165-0.84475 0.80295-1.49024 0.009-0.0205 0.0171-0.0321 0.0251-0.0337zm-19.6621 0.0668c0.0247-0.004 0.0513 0.0211 0.0723 0.0819 0.1275 0.37794 0.47357 1.0205 0.77897 1.44642l0.34755 0.48448v0.63842c0 0.54246-0.024 0.70273-0.16067 1.06342h0.002c-0.0882 0.23352-0.21464 0.5097-0.27864 0.61337l-0.11759 0.18862-0.35504-0.54736c-0.3635-0.55998-0.64565-1.14686-0.87335-1.81349l-0.12846-0.37596 0.19025-0.32977c0.2197-0.37958 0.44454-0.99545 0.44454-1.22074 0-0.13577 0.0367-0.2228 0.0779-0.22933zm2.3845 0.0637c0.008 0.002 0.0162 0.013 0.0255 0.0334 0.2813 0.64597 0.50382 1.05821 0.80332 1.49024l0.35654 0.51345-0.027 0.59458c-0.005 0.48379-0.0378 0.6738-0.16628 1.01933h0.021c-0.0871 0.23352-0.21313 0.50969-0.27713 0.61337l-0.11798 0.18862-0.35503-0.54736c-0.3325-0.51242-0.60393-1.06416-0.83703-1.69818-0.0987-0.26524-0.0962-0.27596 0.0618-0.57032 0.216-0.39758 0.38779-0.92847 0.44379-1.36162 0.0263-0.19574 0.0451-0.28005 0.0685-0.27551zm14.97662 0.24759c0.0222-0.004 0.0535 0.0844 0.0772 0.21681 0.0619 0.34794 0.26365 0.86236 0.47525 1.21343 0.20229 0.33704 0.18609 0.45964-0.1659 1.25231h-0.002c-0.1423 0.3207-0.40841 0.8063-0.59321 1.07907l-0.33443 0.4957-0.14232-0.26376c-0.2867-0.5293-0.4071-0.98244-0.4071-1.56382v-0.55049l0.32657-0.47431c0.17951-0.26094 0.41648-0.66749 0.52357-0.90297 0.1072-0.23561 0.20595-0.458 0.23295-0.4944 0.003-0.005 0.006-0.007 0.009-0.008zm-12.67376 0.13045c0.004 0.00062 0.007 0.003 0.0105 0.008 0.0188 0.0363 0.12314 0.25892 0.23295 0.4944 0.1082 0.23558 0.34443 0.64178 0.52393 0.9027l0.32695 0.47457-0.027 0.57241c-0.005 0.45847-0.0377 0.65711-0.16628 0.99715l0.0217 0.00027c-0.0868 0.23355-0.21313 0.50943-0.27713 0.61311l-0.1176 0.18863-0.35578-0.54711c-0.3708-0.57021-0.78964-1.46072-0.85164-1.80305-0.0268-0.15383 0.003-0.26064 0.12846-0.47066 0.2127-0.35107 0.41325-0.86525 0.47525-1.21318 0.0236-0.13241 0.0511-0.22107 0.0756-0.2168zm25.36587 0.0519 0.0779 0.30551c0.0437 0.16802 0.17505 0.49816 0.29025 0.73417l0.2116 0.42891-0.094 0.37856c-0.1227 0.49667-0.2313 0.79195-0.53592 1.45764h0.0202c-0.1385 0.30276-0.38779 0.7487-0.5539 0.99088l-0.30147 0.4404-0.14195-0.26377c-0.2529-0.46972-0.37859-0.98823-0.40559-1.45372l-0.027-0.44039 0.39548-0.5398c0.45859-0.6258 0.51251-0.7221 0.82842-1.47616zm7.89579 0.0334c0.009 0.004 0.0142 0.0261 0.021 0.0566 0.01 0.19776 0.25299 0.8319 0.45389 1.1876l0.19811 0.34804-0.13144 0.455c-0.072 0.25027-0.24674 0.71707-0.38873 1.03733h-0.002c-0.14149 0.32024-0.40729 0.80555-0.59208 1.07829l-0.33407 0.49597-0.14195-0.26403c-0.29389-0.54471-0.40451-0.97971-0.4037-1.58573v-0.57241l0.38125-0.52858c0.2095-0.29067 0.47099-0.7268 0.58349-0.96897 0.26204-0.59655 0.32764-0.7507 0.35541-0.73912zm-45.95715 0.0963 0.23557 0.56249c0.3159 0.75428 0.37026 0.8505 0.82916 1.47616l0.39511 0.53953-0.027 0.46231c-0.008 0.32983-0.0534 0.5842-0.16591 0.88705l0.018 0.00027c-0.0871 0.23352-0.21052 0.50943-0.27452 0.61311l-0.11797 0.18863-0.35504-0.5471c-0.46959-0.72401-0.82458-1.53497-1.02278-2.33503l-0.094-0.37857 0.2116-0.42891c0.1158-0.2359 0.24687-0.56646 0.28987-0.73443zm-7.92948 0.0336c0.021-0.0116 0.0922 0.14243 0.36627 0.73912 0.1115 0.24222 0.37534 0.67808 0.58424 0.96871l0.38125 0.52858v0.59459c0 0.4896-0.0294 0.66938-0.16067 1.01906h-0.005c-0.087 0.23355-0.21314 0.5097-0.27714 0.61337l-0.11797 0.18863-0.35541-0.54736c-0.3968-0.61042-0.74771-1.37418-0.94601-2.05822l-0.13108-0.45422 0.19812-0.3483c0.202-0.35571 0.4269-0.9899 0.4539-1.1876 0.002-0.0304 0.003-0.0525 0.01-0.0564zm31.07303 0.0947c0.0101-0.003 0.015 0.007 0.015 0.0297 0.008 0.21413 0.24239 0.84273 0.45129 1.20404 0.2218 0.38603 0.22749 0.34931-0.20111 1.28414h-0.001c-0.1387 0.3028-0.3878 0.7487-0.5539 0.99088l-0.30148 0.4404-0.14194-0.26377c-0.21-0.3912-0.3737-0.9177-0.4217-1.37441l-0.0431-0.40517 0.36515-0.5197c0.2009-0.28588 0.47288-0.73792 0.60408-1.0042 0.12285-0.24818 0.19865-0.37315 0.22883-0.38195zm-8.24145 0.13019c0.0306 0.009 0.10508 0.13321 0.2277 0.38195 0.1315 0.26644 0.40244 0.7182 0.60334 1.00367l0.36477 0.51892-0.0453 0.42788c-0.0268 0.23532-0.11287 0.60888-0.19287 0.83043-0.0803 0.22144-0.20115 0.48751-0.26515 0.59119l-0.11797 0.18863-0.35466-0.5471c-0.322-0.49624-0.61987-1.09502-0.81007-1.62721-0.0643-0.18195-0.0536-0.22809 0.12322-0.53458 0.2071-0.36131 0.4239-0.98999 0.45091-1.20404 0.00076-0.0226 0.006-0.0326 0.0161-0.0297zm28.71211 0.19202c0.003-0.0112 0.03 0.0471 0.03 0.12992 0 0.20296 0.20956 0.7931 0.41045 1.16673l0.1659 0.30499-0.10149 0.41822c-0.12859 0.5301-0.23121 0.81178-0.54491 1.49729l-0.002 0.00027c-0.1385 0.30277-0.38704 0.74872-0.55315 0.99089l-0.30186 0.44039-0.14231-0.26403c-0.2872-0.5323-0.40484-0.98126-0.40484-1.56382v-0.55049l0.35427-0.48762c0.42122-0.57934 0.53646-0.78869 0.83517-1.51398 0.12329-0.30149 0.22766-0.55806 0.25466-0.56876zm-49.16181 0.12966c0.0161 0.0113 0.12839 0.26714 0.25429 0.56876 0.2984 0.72578 0.41406 0.93496 0.83516 1.51398l0.35503 0.48762-0.027 0.57267c-0.003 0.46276-0.0348 0.65396-0.16329 0.99715h0.0236c-0.0868 0.23352-0.21314 0.50969-0.27714 0.61337l-0.1176 0.18837-0.35503-0.54711c-0.4806-0.74069-0.83087-1.54753-1.03177-2.37494l-0.10187-0.41822 0.16628-0.30499c0.2012-0.37363 0.40949-0.96367 0.41009-1.16673 0-0.0828 0.002-0.14063 0.0292-0.12993zm41.21924 0.2502c0.003-0.00053 0.005 0.003 0.005 0.0104 0.006 0.18897 0.24871 0.83239 0.43893 1.1636 0.17978 0.31344 0.18185 0.32067 0.10185 0.68851-0.0943 0.43862-0.14904 0.58814-0.48274 1.31858l0.0232 0.00026c-0.1385 0.3028-0.38705 0.74872-0.55314 0.99089l-0.30223 0.44039-0.14194-0.26402c-0.27431-0.50744-0.4056-0.98432-0.4056-1.51973l-0.027-0.5064 0.33368-0.45761c0.3936-0.53954 0.4489-0.63967 0.76849-1.39215 0.11718-0.27545 0.21783-0.46914 0.2412-0.47275zm-33.28002 0.12967c0.0246 0.004 0.12327 0.19749 0.24043 0.473 0.31961 0.7528 0.3747 0.85257 0.7685 1.39189l0.33406 0.45761-0.027 0.52858c-0.005 0.40875-0.0401 0.62462-0.16329 0.95306h0.0187c-0.0858 0.23352-0.21201 0.50969-0.27601 0.61337l-0.11797 0.18863-0.35504-0.54737c-0.4704-0.72467-0.82452-1.53111-0.96923-2.19623-0.0804-0.36784-0.0776-0.3751 0.10187-0.6885 0.1899-0.33119 0.41193-0.97475 0.43893-1.16361 0.00038-0.008 0.002-0.0109 0.006-0.0104zm38.74971 0.39447 0.0831 0.34387c0.0466 0.18921 0.16968 0.51478 0.27677 0.7232 0.1045 0.20844 0.19808 0.44832 0.22507 0.53302 0.0415 0.20378-0.16845 0.90527-0.48535 1.62226h0.0225c-0.14091 0.3184-0.4057 0.80215-0.5906 1.07489l-0.33407 0.49597-0.14231-0.26403c-0.2663-0.49349-0.37859-0.98632-0.40559-1.49781l-0.027-0.48449 0.35314-0.48422c0.363-0.49807 0.61694-0.98316 0.87674-1.67001zm-7.95008 0.0994c0.0359-0.0101 0.0655 0.12515 0.1442 0.48787 0.0394 0.18166 0.17085 0.52928 0.28873 0.77252l0.21685 0.44248-0.12321 0.42109c-0.0677 0.23162-0.2371 0.68143-0.37902 0.9995h-0.002c-0.14071 0.31806-0.40534 0.80161-0.59024 1.07437l-0.33443 0.49597-0.14193-0.26403c-0.29392-0.54471-0.40454-0.97971-0.40373-1.58573v-0.57267l0.38123-0.52832c0.34231-0.4744 0.59111-0.9335 0.85952-1.58547 0.0382-0.093 0.062-0.1515 0.0835-0.15758zm-36.26896 0.0303 0.14718 0.39265c0.2596 0.68725 0.51418 1.17204 0.87748 1.67l0.35316 0.48449-0.027 0.5064c-0.008 0.38027-0.0485 0.61229-0.16628 0.93114h0.0199c-0.0876 0.23354-0.21126 0.50969-0.27526 0.61337l-0.11797 0.18837-0.35541-0.5471c-0.5591-0.86004-1.11577-2.2713-1.04076-2.63898 0.0188-0.0848 0.11797-0.32485 0.22508-0.53327 0.1056-0.20844 0.23176-0.53382 0.27676-0.72295zm7.92574 0.0997c0.0212 0.006 0.0446 0.0643 0.0828 0.15732 0.2687 0.6525 0.51758 1.1111 0.85988 1.58548l0.38125 0.52831v0.59459c0 0.48963-0.0294 0.66964-0.16067 1.01932h-0.003c-0.0873 0.23354-0.21351 0.50969-0.27751 0.61337l-0.11797 0.18837-0.35578-0.5471c-0.3844-0.59094-0.743-1.36515-0.9359-2.02352l-0.12322-0.41326 0.21685-0.44248c0.11979-0.24335 0.24837-0.59115 0.28837-0.77278 0.0804-0.36264 0.10959-0.49773 0.14493-0.48762zm25.94786 0.29195 0.0322 0.1101c0.0186 0.0606 0.0645 0.25724 0.10449 0.43726 0.0401 0.18 0.15796 0.49707 0.26515 0.70468 0.322 0.63006 0.31757 0.66968-0.20373 1.80854h-0.003c-0.1385 0.3028-0.38753 0.74871-0.55352 0.99089l-0.30185 0.44039-0.14196-0.26376c-0.2853-0.52689-0.38158-0.98241-0.40857-1.56382v-0.55049l0.35651-0.51345c0.3035-0.43664 0.45943-0.72474 0.80633-1.49024zm-2.36614 0.0796c0.0238-0.00067 0.0453 0.091 0.0693 0.29481 0.0555 0.45876 0.23533 1.01317 0.45504 1.39398 0.19069 0.33414 0.18856 0.34895-0.17154 1.16334v0.00027c-0.13831 0.31263-0.40131 0.79145-0.58612 1.0642l-0.33406 0.49596-0.14194-0.26403c-0.29659-0.551-0.40633-0.97869-0.40633-1.60765v-0.59458l0.32507-0.47457c0.27269-0.39857 0.50179-0.83012 0.767-1.4412 0.009-0.02 0.0167-0.0303 0.0247-0.0305zm-21.16202 0.0501 0.0479 0.1101c0.347 0.76572 0.50289 1.05361 0.80669 1.49025l0.35728 0.51344-0.027 0.57267c-0.005 0.45695-0.0404 0.65801-0.16629 0.99689l0.0202 0.00027c-0.0868 0.23358-0.21314 0.5097-0.27714 0.61337l-0.11759 0.18862-0.35541-0.54736c-0.5111-0.78797-0.9713-1.87365-0.9153-2.15344 0.0187-0.0855 0.11788-0.32515 0.22508-0.53276 0.1071-0.20756 0.22515-0.52466 0.26515-0.70468 0.0405-0.17992 0.0775-0.37676 0.10449-0.43726zm2.3684 0.0793c0.008 0.00026 0.016 0.0108 0.0247 0.0308 0.2649 0.6117 0.49445 1.04263 0.76775 1.4412l0.32507 0.47457-0.027 0.6165c-0.003 0.51159-0.032 0.68868-0.16329 1.04098h0.021c-0.0876 0.23357-0.21388 0.5097-0.27788 0.61337l-0.11797 0.18863-0.35579-0.5471c-0.3253-0.50075-0.74514-1.35934-0.84414-1.73262-0.0294-0.11059 0.005-0.22884 0.12321-0.43753 0.2194-0.38081 0.39903-0.93523 0.45503-1.39397 0.024-0.20411 0.0454-0.29553 0.0693-0.29481zm14.26018 0.27028c0.0104 0.008 0.0243 0.0515 0.0446 0.11506 0.0192 0.0848 0.0671 0.29326 0.10712 0.46283 0.0375 0.16974 0.15541 0.47677 0.25991 0.68251 0.3663 0.72291 0.35848 0.63711 0.0959 1.23065h0.0228c-0.12989 0.2928-0.38472 0.7549-0.56962 1.02689l-0.33331 0.49466-0.14194-0.26376c-0.2781-0.51843-0.40672-0.98392-0.40672-1.54191l-0.027-0.52857 0.2925-0.4404c0.2374-0.35737 0.4401-0.74455 0.64641-1.233 0.003-0.006 0.006-0.008 0.009-0.005zm2.2654 0.005c0.0244-0.006 0.0357 0.0326 0.036 0.11245 0 0.23636 0.23251 0.85499 0.48162 1.28335l0.22507 0.38874-0.25992 0.59197h0.0229c-0.14331 0.32557-0.41095 0.81583-0.59586 1.08951l-0.33556 0.49779-0.14193-0.26403c-0.28039-0.51877-0.40634-0.98359-0.40634-1.54164l-0.027-0.52858 0.29736-0.43648c0.16341-0.24006 0.37264-0.59678 0.46365-0.7926 0.12231-0.26088 0.19946-0.3913 0.24005-0.40048zm12.54345 0.0997c0.003-0.00053 0.005 0.003 0.005 0.0104 0.006 0.19163 0.25006 0.83425 0.44566 1.1756l0.19025 0.32899-0.12582 0.4297c-0.0694 0.23644-0.24001 0.69048-0.382 1.00889l0.018 0.00027c-0.14099 0.31843-0.40541 0.80189-0.59022 1.07463l-0.33443 0.49597-0.14232-0.26377c-0.2564-0.47666-0.37935-0.98791-0.40635-1.4759l-0.027-0.46231 0.33669-0.45761c0.39569-0.53777 0.45004-0.63672 0.77074-1.39215 0.11715-0.27545 0.21817-0.46914 0.24156-0.47274zm-24.54534 0.025c0.005-0.002 0.0105-0.0008 0.0172 0.005 0.2063 0.48892 0.40838 0.87558 0.64678 1.233l0.29324 0.4404-0.027 0.55049c-0.005 0.43283-0.0404 0.64113-0.16628 0.97497l0.0187 0.00027c-0.0863 0.23358-0.21238 0.5097-0.27638 0.61337l-0.11797 0.18863-0.35541-0.54736c-0.1956-0.301-0.45001-0.76176-0.56252-1.02429-0.23039-0.53094-0.23826-0.45736 0.12584-1.17403 0.1045-0.20571 0.21991-0.51293 0.25991-0.68277 0.0401-0.16971 0.0801-0.37797 0.10711-0.46257 0.0143-0.0645 0.0222-0.1079 0.0367-0.11532zm-2.25716 0.005c0.0406 0.009 0.11743 0.13967 0.23968 0.40048 0.0916 0.19593 0.30062 0.55258 0.46402 0.79261l0.29811 0.43648-0.027 0.55049c-0.005 0.43318-0.0404 0.64085-0.16628 0.97497h0.021c-0.0863 0.23352-0.21239 0.5097-0.27639 0.61337l-0.11796 0.18863-0.35616-0.5471c-0.1955-0.30098-0.45976-0.79031-0.58836-1.08716l-0.23294-0.53954 0.2247-0.38821c0.2484-0.42785 0.48112-1.04629 0.48162-1.28257 0.00039-0.0798 0.0116-0.11796 0.036-0.11245zm-12.54981 0.0997c0.0247 0.004 0.12365 0.19722 0.24081 0.47274 0.3209 0.75561 0.37542 0.85423 0.77112 1.39189l0.33668 0.45787-0.027 0.48423c-0.008 0.35056-0.0537 0.60194-0.16629 0.90922h0.0146c-0.0868 0.23352-0.21013 0.5097-0.27414 0.61337l-0.11797 0.18863-0.35578-0.54736c-0.3893-0.59895-0.74524-1.36681-0.93815-2.02952l-0.12583-0.42631 0.19025-0.32873c0.1969-0.34132 0.41904-0.98406 0.44604-1.1756 0.00038-0.008 0.002-0.0109 0.006-0.0104zm22.44134 0.61754 0.11498 0.29481c0.0638 0.16216 0.19026 0.41567 0.27826 0.56328 0.1878 0.30891 0.19099 0.29114-0.2277 1.22439-0.1358 0.3032-0.28245 0.58586-0.32845 0.62876-0.0885 0.0841-0.086 0.0129 0.0828-1.83567zm14.52084 0.35299c0.0286 0.003 0.0582 0.0828 0.12845 0.28569 0.0646 0.18731 0.20667 0.49798 0.31647 0.69059l0.19811 0.35012-0.13108 0.45501c-0.0724 0.25024-0.2471 0.7171-0.38911 1.03733-0.14169 0.32029-0.40691 0.80554-0.59172 1.07828l-0.33443 0.49597-0.14195-0.26403c-0.2548-0.47423-0.38047-0.98812-0.40747-1.47563-0.008-0.44446-0.003-0.47088 0.18464-0.68251 0.35491-0.4027 1.03926-1.55276 1.03926-1.74671 0-0.0174 0.0297-0.0871 0.0697-0.15523 0.0251-0.0443 0.042-0.0705 0.0592-0.0689zm-34.58554 0.12967c0.0172-0.002 0.0337 0.0248 0.0588 0.0691 0.038 0.0681 0.07 0.13913 0.07 0.15523 0 0.19385 0.68399 1.34372 1.03889 1.74645 0.2092 0.2138 0.20901 0.23426 0.18201 0.70468-0.008 0.34829-0.0563 0.60368-0.16891 0.90897l0.00077 0.00026c-0.0865 0.23355-0.20976 0.50969-0.27376 0.61337l-0.11798 0.18837-0.35578-0.5471c-0.397-0.61042-0.74743-1.37441-0.94563-2.05848l-0.13146-0.45422 0.19812-0.35013c0.1099-0.19261 0.25208-0.5036 0.31608-0.69085 0.0704-0.20293 0.10024-0.28301 0.12884-0.28568zm32.25873 0.26977c0.0305-0.00067 0.0488 0.0569 0.049 0.17558 0 0.19952 0.20153 0.79423 0.37563 1.11455 0.0696 0.13044 0.12846 0.3034 0.12846 0.3843 0 0.2377-0.23169 0.96185-0.50708 1.58495h0.002c-0.14091 0.31843-0.40533 0.80216-0.59024 1.0749l-0.33443 0.49597-0.14195-0.26403c-0.28929-0.53354-0.40367-0.98156-0.40445-1.56382v-0.55049l0.382-0.52832c0.38039-0.52638 0.65208-1.03613 0.87447-1.63765 0.0692-0.18791 0.12895-0.28509 0.16816-0.28594zm-29.93528 0.12992c0.0392 0.0008 0.0992 0.098 0.16853 0.28595 0.2223 0.60209 0.49426 1.11146 0.87486 1.63765l0.38237 0.52831v0.57267c-0.003 0.46295-0.0347 0.65353-0.16329 0.99689l-0.0255 0.00027c-0.0865 0.23355-0.21277 0.50969-0.27677 0.61337l-0.11797 0.18863-0.35541-0.54737c-0.3892-0.59878-0.74534-1.36677-0.93814-2.02899-0.1338-0.53482-0.13384-0.6626 0.027-0.95723 0.1749-0.32031 0.37521-0.91498 0.37601-1.11456 0-0.11868 0.0178-0.17624 0.0483-0.17558zm27.42943 0.55441c0.008 0.00013 0.0159 0.002 0.0247 0.006 0.035 0.015 0.064 0.10017 0.064 0.18967 0 0.19952 0.2018 0.79397 0.376 1.11429 0.0696 0.13032 0.12845 0.29683 0.12845 0.36943 0 0.18766-0.21562 0.78939-0.51082 1.43129h-0.002c-0.13961 0.30277-0.38892 0.7487-0.55503 0.99088l-0.30185 0.4404-0.14194-0.26403c-0.28499-0.52691-0.38121-0.98241-0.40821-1.56382-0.003-0.45308 0.0153-0.57744 0.11235-0.70442 0.64-0.84906 1.17521-1.74661 1.17521-1.97003 0-0.025 0.0165-0.0405 0.0393-0.0399zm-2.26653 0.006 0.0431 0.26403c0.0645 0.39774 0.22256 0.89037 0.39136 1.21656 0.08 0.16044 0.14981 0.34576 0.14981 0.41196 0 0.158-0.14001 0.53554-0.44942 1.21213h0.002c-0.13879 0.30277-0.38779 0.7487-0.55391 0.99088l-0.30146 0.4404-0.14193-0.26377c-0.29712-0.55303-0.40448-0.97791-0.40448-1.60791v-0.59458l0.39922-0.55023c0.2194-0.3028 0.50442-0.76843 0.63293-1.03498zm-22.65406 0.12393c0.0229-0.0004 0.0393 0.0143 0.0393 0.0394 0 0.22358 0.54259 1.13277 1.17559 1.97004 0.1821 0.24308 0.15242 1.16012-0.0592 1.72374-0.0868 0.23352-0.21314 0.50969-0.27714 0.61337l-0.11797 0.18863-0.35504-0.54736c-0.3611-0.55674-0.64071-1.13592-0.8711-1.80463-0.1602-0.46621-0.15996-0.57845 0.00076-0.87348 0.1752-0.32032 0.37521-0.91471 0.37601-1.11429 0-0.0892 0.029-0.17357 0.064-0.18967 0.009-0.004 0.0171-0.006 0.0247-0.006zm4.50722 0.24785c0.0268 0 0.11549 0.1436 0.19549 0.31934 0.0815 0.17563 0.33546 0.57686 0.56326 0.89174l0.41533 0.57267v0.57241c-0.003 0.4623-0.0347 0.65427-0.16328 0.99715l-0.003 0.00027c-0.0868 0.23352-0.21313 0.50943-0.27713 0.6131l-0.11797 0.18863-0.35541-0.5471c-0.3555-0.54706-0.78501-1.44334-0.85201-1.78584-0.0268-0.13638 0.006-0.25318 0.12883-0.46883 0.2015-0.35167 0.41773-0.96498 0.41833-1.18813 0-0.0911 0.0209-0.16541 0.0479-0.16541zm13.55648 3.76761c-0.088 0.0339-0.17471 0.0706-0.26178 0.10645l-0.22883 0.33395-0.10374-0.19202c-0.0893 0.0397-0.17867 0.0792-0.26702 0.12079 0.0739 0.13577 0.14699 0.25311 0.21086 0.32769 0.22996-0.22583 0.46405-0.44892 0.65051-0.69686zm-3.1249 1.69818c-0.23346 0.16408-0.46343 0.33312-0.6891 0.50771 0.0372 0.52515 0.0884 1.085 0.15205 1.69427 0.20494-0.0872 0.46681-0.22651 0.67899-0.31465-0.0566-0.5833-0.10179-1.21809-0.14194-1.88733zm0.20972 2.52992c-0.17627 0.20474-0.40772 0.36702-0.64528 0.52075 0.01 0.069 0.0206 0.14143 0.0311 0.2129 0.231-0.029 0.46214-0.0571 0.69321-0.0871-0.028-0.2123-0.0542-0.42801-0.079-0.64651zm0.24605 1.7715c-0.22557 0.0293-0.45139 0.057-0.67711 0.085 0.0273 0.1536 0.0546 0.30677 0.0839 0.46231 0.20848-0.10784 0.41965-0.20971 0.63292-0.30604-0.00076-0.004-0.001-0.007-0.002-0.011-0.0132-0.0767-0.0251-0.15362-0.0378-0.23037zm0.22733 1.24004c-0.20071 0.13272-0.40148 0.26555-0.60146 0.39943 0.10106 0.47396 0.20571 0.92786 0.30785 1.32301 0.005 0.0175 0.008 0.033 0.0124 0.0504 0.2142-0.0677 0.42619-0.14335 0.63516-0.22725-0.16342-0.66915-0.27065-1.13812-0.35391-1.54555zm2.43994 0.28986c-0.013 0.003-0.0253 0.006-0.0382 0.009-0.3124 0.0657-0.52113 0.12741-0.46512 0.13541 0.031 0.005 0.17303-0.004 0.35952-0.0204 0.0488-0.0403 0.0964-0.0819 0.14382-0.12367zm1.77292 0.003c-0.0449 0.054-0.0894 0.10839-0.13669 0.16071l0.30484 0.12967c3.61571 1.53888 5.48328 2.44878 8.92567 4.34837 3.86811 2.13454 4.26913 2.36635 5.53713 3.20095l0.89057 0.58623 0.0401 1.02689c0.0822 2.08326 0.37464 3.73678 1.06173 6.00325 0.9625 3.17487 2.49195 6.17207 4.58924 8.99495l0.027-0.002c0.29301 0.39361 0.53446 0.71564 0.50746 0.71564-0.0136 0-0.34967-0.28051-0.74677-0.62328-2.37559-2.05025-2.72703-2.32514-5.78392-4.52943-2.6883-1.93841-4.63129-3.27898-5.77979-3.98756-1.4305-0.88254-3.29016-1.98321-4.01886-2.3786-1.472-0.79858-3.91094-1.88932-5.67045-2.53618-0.599-0.22039-1.11226-0.41594-1.13925-0.43204-0.161-0.10174-1.30646-4.26363-1.75196-6.36537-0.12662-0.59659-0.31008-1.3996-0.43593-1.91864-0.20824 0.0796-0.41913 0.153-0.63217 0.21968 0.18819 0.76748 0.37009 1.53741 0.57075 2.4493 0.0906 0.41175 0.32056 1.2739 0.51345 1.91577 0.1915 0.64187 0.42906 1.48411 0.52806 1.87167 0.14921 0.58663 0.4074 1.47863 0.5333 1.8495 0.0161 0.0485 0.0941 0.10939 0.17415 0.13619 2.2091 0.73652 6.1076 2.52229 8.39351 3.84484 2.3615 1.36614 3.93349 2.41245 7.51789 5.00297 3.7368 2.70086 4.15397 3.02293 6.07416 4.69119 1.6816 1.46114 2.14613 1.84564 2.79984 2.31729 0.33989 0.24565 0.73585 0.56271 0.87784 0.70442 0.1427 0.14185 0.46359 0.4264 0.71269 0.63241 0.2492 0.20593 0.54551 0.46844 0.65801 0.58363h0.0113c0.11261 0.11522 0.2007 0.20924 0.2277 0.20924 0.0132 0-0.16791-0.23276-0.40371-0.51736-0.7988-0.96653-3.02236-3.81728-3.52974-4.525-1.01771-1.41974-1.83425-2.80736-2.64405-4.49213-0.65499-1.3629-1.00578-2.24426-1.44597-3.63325-0.7884-2.48623-1.1076-4.18701-1.27371-6.80394l-0.0431-0.66059-0.92392-0.60058c-1.42069-0.9238-2.02594-1.26943-5.71726-3.26539-3.4277-1.8533-5.32371-2.73393-8.63431-4.01051-0.40944-0.15944-0.64633-0.25496-0.76473-0.31334z" class="f"/><path d="m330.50352 186.16197c-0.35583-0.11523-0.59314-0.27501-0.67966-0.45762-0.0833-0.17577-0.0357-0.22135 0.14555-0.13953 0.33269 0.15015 0.6927 0.25623 0.86664 0.25537 0.70161-0.003 1.3106-0.54128 1.5963-1.40966 0.0987-0.30016 0.23116-1.0315 0.19173-1.05897-0.0133-0.009-0.18135 0.0532-0.37348 0.13884-0.19212 0.0856-0.48378 0.19259-0.64812 0.23771-0.52613 0.14447-2.01936 0.38322-2.01936 0.32288 0-0.0138 0.28302-0.12214 0.62894-0.24075 0.71016-0.2435 0.84083-0.29771 1.61569-0.67018 0.8685-0.41748 0.84383-0.38793 0.76403-0.91518-0.0369-0.24376-0.096-0.54899-0.13141-0.67829-0.15312-0.55966-0.73834-1.79531-0.85028-1.79531-0.0267 0-0.23826 0.12103-0.47017 0.26895-0.5386 0.34356-0.75392 0.45772-0.86327 0.45772-0.13325 0 0.17477-0.36662 0.66734-0.7943l0.41772-0.36269-0.27879-0.38672c-0.31898-0.44246-0.94396-1.16468-1.35564-1.56657l-0.281-0.27433-0.22304 0.14918c-0.30061 0.20109-1.61087 0.92947-1.84524 1.02578-0.10335 0.0425-0.1879 0.0591-0.1879 0.0369 0-0.13865 1.09703-1.06029 1.64519-1.38215l0.26461-0.15537-0.19083-0.18597c-0.70256-0.68468-1.31878-1.35529-1.27402-1.38647 0.0167-0.0116 0.45967 0.26875 0.9844 0.62307 0.52473 0.35432 0.97 0.62625 0.98948 0.60429 0.0195-0.022 0.47034-0.28629 1.0019-0.58742 1.20866-0.68468 2.36273-1.48429 2.6609-1.84362 0.12418-0.14965 0.25442-0.3844 0.29644-0.53432 0.14799-0.52797 0.43014-1.28714 0.49522-1.33247 0.0476-0.0331 0.0549 0.19583 0.0261 0.80864-0.0452 0.95944-0.0899 1.07954-0.56672 1.52448-0.37193 0.34703-1.52842 1.11052-2.6051 1.71982-0.53157 0.30081-0.97866 0.56066-0.99355 0.57744-0.0149 0.0168 0.1804 0.24092 0.43396 0.4981 0.50329 0.51046 1.00322 1.08694 1.30389 1.50354l0.19237 0.26654 0.4751-0.27435c0.56997-0.32914 1.50334-0.79628 1.54-0.77075 0.0492 0.0343-0.46448 0.44529-1.25581 1.00473l-0.51555 0.36448 0.28079 0.48666c0.345 0.59791 0.66025 1.35726 0.76417 1.84069 0.043 0.19983 0.0948 0.42383 0.11524 0.49776l0.0371 0.13443 0.73631-0.48913c0.40498-0.26902 0.85505-0.55862 1.00017-0.64358l0.26385-0.15447-0.29453-0.11064c-0.22495-0.0845-0.3297-0.16008-0.44339-0.31989-0.13796-0.19392-0.14363-0.22678-0.0775-0.44883 0.14297-0.48007 0.78863-1.22708 1.96203-2.26999 1.2144-1.07935 2.32838-1.91142 3.3576-2.50791 1.2113-0.702 3.42474-1.59564 3.95222-1.59564 0.27697 0 0.4574 0.14192 0.41451 0.32603-0.0378 0.16216-0.37213 0.63856-0.70064 0.99828-0.65119 0.71307-2.08603 1.86336-2.21373 1.77473-0.0656-0.0455 0.0584-0.19839 0.8152-1.00452 0.84097-0.89585 0.9416-1.00829 1.10367-1.23318 0.0906-0.12577 0.15133-0.23805 0.13488-0.24951-0.0505-0.0352-1.25946 0.44905-1.97254 0.79004-1.31829 0.63042-2.17372 1.17979-3.36028 2.15809-1.71971 1.41786-2.80635 2.56658-2.80635 2.96667 0 0.1678 0.10713 0.21566 0.56112 0.25065 0.32168 0.0248 0.33762 0.0207 0.75811-0.19595 0.60352-0.31093 2.69635-1.28092 2.76367-1.28092 0.0777 0-0.75605 0.58561-1.38073 0.96983-0.28556 0.17564-0.55854 0.35847-0.60663 0.4063-0.086 0.0855-0.081 0.0865 0.30444 0.057 0.21553-0.0165 1.02695-0.11611 1.80315-0.22134 1.76446-0.23921 2.61412-0.31408 3.56415-0.31408 1.0271 0 1.40808 0.10258 1.66689 0.44882 0.29322 0.39229-0.16183 1.43719-1.0124 2.32466-0.49153 0.51285-1.61665 1.28551-2.40292 1.65016-1.13589 0.52678-2.40941 0.84829-3.5901 0.90634-0.42478 0.0209-0.54649 0.0111-0.78892-0.0636-0.61955-0.19092-0.70236-0.61349-0.24596-1.25509 0.46134-0.64855 2.05062-1.84543 2.94148-2.21521 0.19726-0.0819 0.60624-0.25885 0.90884-0.39326 0.3026-0.13442 0.56425-0.23459 0.58145-0.22261 0.0172 0.012-0.27181 0.22485-0.64223 0.47304-0.37042 0.2482-0.93298 0.62696-1.25014 0.84168-1.30237 0.88174-2.34406 1.98652-2.11395 2.24197 0.16436 0.18246 1.56608 0.0476 2.53743-0.24413 1.35424-0.40673 2.64778-1.1515 3.46001-1.99213 0.42152-0.43625 0.60902-0.69892 0.83637-1.17167 0.36618-0.7614 0.2754-0.83868-0.98067-0.83479-0.98119 0.003-1.48079 0.0479-3.28525 0.29494-1.30374 0.1785-1.97699 0.24906-2.8839 0.30227-0.2751 0.0161-0.47364 0.0517-0.55224 0.0989-0.38142 0.22897-0.88999 0.55216-1.62603 1.0333-0.45559 0.29782-0.90462 0.58779-0.99783 0.64438-0.16113 0.0978-0.17257 0.13027-0.23228 0.65858-0.1587 1.40405-0.71358 2.29978-1.61443 2.60614-0.45486 0.15469-0.80413 0.17433-1.14383 0.0643z" id="path1177" class="g"/></g></g></g></svg>
